<mxfile host="www.draw.io" modified="2019-10-30T04:52:18.224Z" agent="Mozilla/5.0 (Windows NT 10.0; Win64; x64) AppleWebKit/537.36 (KHTML, like Gecko) Chrome/77.0.3865.120 Safari/537.36" etag="COdiddv49hAMGYj94Z7b" version="12.1.8" type="github" pages="1">
  <diagram id="v_HsGd2-cP82k8bL8M8z" name="Page-1">
    <mxGraphModel dx="1233" dy="762" grid="1" gridSize="10" guides="1" tooltips="1" connect="1" arrows="1" fold="1" page="1" pageScale="1" pageWidth="850" pageHeight="1100" math="0" shadow="0">
      <root>
        <mxCell id="0"/>
        <mxCell id="1" parent="0"/>
        <mxCell id="Y3ty23P_71YVdsBofIcM-2" value="" style="rounded=0;whiteSpace=wrap;html=1;fontSize=17;strokeColor=#CCCCCC;" vertex="1" parent="1">
          <mxGeometry x="75" y="568" width="370" height="402" as="geometry"/>
        </mxCell>
        <mxCell id="Y3ty23P_71YVdsBofIcM-3" value="Fastnet3" style="rounded=0;whiteSpace=wrap;html=1;align=left;strokeColor=#CCCCCC;" vertex="1" parent="1">
          <mxGeometry x="75" y="548" width="120" height="20" as="geometry"/>
        </mxCell>
        <mxCell id="6VEUIB0EuY8hzefAT8qt-11" style="edgeStyle=orthogonalEdgeStyle;rounded=0;orthogonalLoop=1;jettySize=auto;html=1;entryX=0.5;entryY=0;entryDx=0;entryDy=0;fontSize=17;" parent="1" source="6VEUIB0EuY8hzefAT8qt-4" target="6VEUIB0EuY8hzefAT8qt-6" edge="1">
          <mxGeometry relative="1" as="geometry"/>
        </mxCell>
        <mxCell id="6VEUIB0EuY8hzefAT8qt-4" value="" style="shape=mxgraph.bpmn.script_task;html=1;outlineConnect=0;" parent="1" vertex="1">
          <mxGeometry x="245" y="143" width="30" height="27" as="geometry"/>
        </mxCell>
        <mxCell id="6VEUIB0EuY8hzefAT8qt-10" style="edgeStyle=orthogonalEdgeStyle;rounded=0;orthogonalLoop=1;jettySize=auto;html=1;fontSize=17;" parent="1" source="6VEUIB0EuY8hzefAT8qt-5" target="6VEUIB0EuY8hzefAT8qt-4" edge="1">
          <mxGeometry relative="1" as="geometry"/>
        </mxCell>
        <mxCell id="6VEUIB0EuY8hzefAT8qt-5" value="eMargin" style="rounded=0;whiteSpace=wrap;html=1;fontSize=12;fontStyle=1" parent="1" vertex="1">
          <mxGeometry x="200" y="60" width="120" height="50" as="geometry"/>
        </mxCell>
        <mxCell id="6VEUIB0EuY8hzefAT8qt-6" value="" style="rounded=0;whiteSpace=wrap;html=1;fontSize=17;strokeColor=#CCCCCC;" parent="1" vertex="1">
          <mxGeometry x="75" y="200" width="370" height="320" as="geometry"/>
        </mxCell>
        <mxCell id="6VEUIB0EuY8hzefAT8qt-9" value="&lt;font style=&quot;font-size: 12px;&quot;&gt;Mapping xml to mo_policy&lt;/font&gt;" style="label;whiteSpace=wrap;html=1;image=img/clipart/Gear_128x128.png;fontSize=12;" parent="1" vertex="1">
          <mxGeometry x="190" y="220" width="140" height="60" as="geometry"/>
        </mxCell>
        <mxCell id="6VEUIB0EuY8hzefAT8qt-13" value="XML request" style="text;html=1;strokeColor=none;fillColor=none;align=center;verticalAlign=middle;whiteSpace=wrap;rounded=0;fontSize=12;" parent="1" vertex="1">
          <mxGeometry x="282.5" y="150" width="75" height="20" as="geometry"/>
        </mxCell>
        <mxCell id="6VEUIB0EuY8hzefAT8qt-15" style="edgeStyle=orthogonalEdgeStyle;rounded=0;orthogonalLoop=1;jettySize=auto;html=1;entryX=0.75;entryY=1;entryDx=0;entryDy=0;fontSize=12;curved=1;" parent="1" source="6VEUIB0EuY8hzefAT8qt-14" target="6VEUIB0EuY8hzefAT8qt-9" edge="1">
          <mxGeometry relative="1" as="geometry"/>
        </mxCell>
        <mxCell id="6VEUIB0EuY8hzefAT8qt-14" value="mapping_rule" style="shape=cylinder;whiteSpace=wrap;html=1;boundedLbl=1;backgroundOutline=1;fontSize=12;fontStyle=1" parent="1" vertex="1">
          <mxGeometry x="340" y="290" width="85" height="50" as="geometry"/>
        </mxCell>
        <mxCell id="6VEUIB0EuY8hzefAT8qt-28" style="edgeStyle=orthogonalEdgeStyle;curved=1;rounded=0;orthogonalLoop=1;jettySize=auto;html=1;entryX=0.5;entryY=0;entryDx=0;entryDy=0;endArrow=classic;endFill=1;fontSize=12;startArrow=none;startFill=0;fillColor=#f5f5f5;strokeColor=#000000;" parent="1" source="6VEUIB0EuY8hzefAT8qt-16" target="6VEUIB0EuY8hzefAT8qt-26" edge="1">
          <mxGeometry relative="1" as="geometry"/>
        </mxCell>
        <mxCell id="6VEUIB0EuY8hzefAT8qt-16" value="mo_policy object" style="shape=parallelogram;perimeter=parallelogramPerimeter;whiteSpace=wrap;html=1;fontSize=12;fontStyle=1" parent="1" vertex="1">
          <mxGeometry x="190" y="360" width="130" height="50" as="geometry"/>
        </mxCell>
        <mxCell id="6VEUIB0EuY8hzefAT8qt-21" value="" style="endArrow=classic;html=1;fontSize=12;entryX=0.538;entryY=0;entryDx=0;entryDy=0;entryPerimeter=0;" parent="1" source="6VEUIB0EuY8hzefAT8qt-9" target="6VEUIB0EuY8hzefAT8qt-16" edge="1">
          <mxGeometry width="50" height="50" relative="1" as="geometry">
            <mxPoint x="260" y="330" as="sourcePoint"/>
            <mxPoint x="260" y="350.71067811865476" as="targetPoint"/>
          </mxGeometry>
        </mxCell>
        <mxCell id="6VEUIB0EuY8hzefAT8qt-23" style="edgeStyle=orthogonalEdgeStyle;curved=1;rounded=0;orthogonalLoop=1;jettySize=auto;html=1;fontSize=12;endArrow=none;endFill=0;fillColor=#f5f5f5;strokeColor=#666666;" parent="1" target="6VEUIB0EuY8hzefAT8qt-13" edge="1">
          <mxGeometry relative="1" as="geometry">
            <mxPoint x="513" y="99" as="sourcePoint"/>
          </mxGeometry>
        </mxCell>
        <mxCell id="Y3ty23P_71YVdsBofIcM-5" style="edgeStyle=orthogonalEdgeStyle;rounded=0;orthogonalLoop=1;jettySize=auto;html=1;" edge="1" parent="1" source="6VEUIB0EuY8hzefAT8qt-26" target="Y3ty23P_71YVdsBofIcM-4">
          <mxGeometry relative="1" as="geometry"/>
        </mxCell>
        <mxCell id="6VEUIB0EuY8hzefAT8qt-26" value="mo_policy" style="shape=cylinder;whiteSpace=wrap;html=1;boundedLbl=1;backgroundOutline=1;fontSize=12;fontStyle=1" parent="1" vertex="1">
          <mxGeometry x="212.5" y="450" width="85" height="50" as="geometry"/>
        </mxCell>
        <mxCell id="6VEUIB0EuY8hzefAT8qt-33" style="edgeStyle=orthogonalEdgeStyle;curved=1;rounded=0;orthogonalLoop=1;jettySize=auto;html=1;entryX=1;entryY=0.7;entryDx=0;entryDy=0;startArrow=none;startFill=0;endArrow=none;endFill=0;strokeColor=#666666;fontSize=12;fillColor=#f5f5f5;" parent="1" target="6VEUIB0EuY8hzefAT8qt-26" edge="1">
          <mxGeometry relative="1" as="geometry">
            <mxPoint x="520" y="483" as="sourcePoint"/>
          </mxGeometry>
        </mxCell>
        <mxCell id="Y3ty23P_71YVdsBofIcM-1" value="FastnetBridge" style="rounded=0;whiteSpace=wrap;html=1;align=left;strokeColor=#CCCCCC;" vertex="1" parent="1">
          <mxGeometry x="75" y="180" width="120" height="20" as="geometry"/>
        </mxCell>
        <mxCell id="Y3ty23P_71YVdsBofIcM-19" style="edgeStyle=orthogonalEdgeStyle;curved=1;rounded=0;orthogonalLoop=1;jettySize=auto;html=1;entryX=0.556;entryY=0.024;entryDx=0;entryDy=0;entryPerimeter=0;" edge="1" parent="1" source="Y3ty23P_71YVdsBofIcM-4" target="Y3ty23P_71YVdsBofIcM-6">
          <mxGeometry relative="1" as="geometry"/>
        </mxCell>
        <mxCell id="Y3ty23P_71YVdsBofIcM-4" value="&lt;font style=&quot;font-size: 12px&quot;&gt;Check in policy&lt;/font&gt;" style="label;whiteSpace=wrap;html=1;image=img/clipart/Gear_128x128.png;fontSize=12;" vertex="1" parent="1">
          <mxGeometry x="185" y="590" width="140" height="60" as="geometry"/>
        </mxCell>
        <mxCell id="Y3ty23P_71YVdsBofIcM-20" style="edgeStyle=orthogonalEdgeStyle;curved=1;rounded=0;orthogonalLoop=1;jettySize=auto;html=1;" edge="1" parent="1" source="Y3ty23P_71YVdsBofIcM-6" target="Y3ty23P_71YVdsBofIcM-10">
          <mxGeometry relative="1" as="geometry"/>
        </mxCell>
        <mxCell id="Y3ty23P_71YVdsBofIcM-6" value="&lt;span style=&quot;&quot;&gt;mo_policy with multi destination&lt;/span&gt;" style="shape=parallelogram;perimeter=parallelogramPerimeter;whiteSpace=wrap;html=1;fontSize=12;fontStyle=1" vertex="1" parent="1">
          <mxGeometry x="160" y="678" width="170" height="42" as="geometry"/>
        </mxCell>
        <mxCell id="Y3ty23P_71YVdsBofIcM-13" style="edgeStyle=orthogonalEdgeStyle;rounded=0;orthogonalLoop=1;jettySize=auto;html=1;entryX=0;entryY=0.5;entryDx=0;entryDy=0;curved=1;" edge="1" parent="1" source="Y3ty23P_71YVdsBofIcM-10" target="Y3ty23P_71YVdsBofIcM-11">
          <mxGeometry relative="1" as="geometry"/>
        </mxCell>
        <mxCell id="Y3ty23P_71YVdsBofIcM-14" style="edgeStyle=orthogonalEdgeStyle;curved=1;rounded=0;orthogonalLoop=1;jettySize=auto;html=1;entryX=0;entryY=0.5;entryDx=0;entryDy=0;" edge="1" parent="1" source="Y3ty23P_71YVdsBofIcM-10" target="Y3ty23P_71YVdsBofIcM-12">
          <mxGeometry relative="1" as="geometry"/>
        </mxCell>
        <mxCell id="Y3ty23P_71YVdsBofIcM-10" value="Split country code" style="rounded=0;whiteSpace=wrap;html=1;align=center;fontStyle=1" vertex="1" parent="1">
          <mxGeometry x="185" y="750" width="120" height="40" as="geometry"/>
        </mxCell>
        <mxCell id="Y3ty23P_71YVdsBofIcM-11" value="policy_history" style="shape=cylinder;whiteSpace=wrap;html=1;boundedLbl=1;backgroundOutline=1;fontSize=12;fontStyle=1" vertex="1" parent="1">
          <mxGeometry x="275" y="820" width="95" height="50" as="geometry"/>
        </mxCell>
        <mxCell id="Y3ty23P_71YVdsBofIcM-12" value="policy_destination" style="shape=cylinder;whiteSpace=wrap;html=1;boundedLbl=1;backgroundOutline=1;fontSize=12;fontStyle=1" vertex="1" parent="1">
          <mxGeometry x="272.5" y="900" width="95" height="50" as="geometry"/>
        </mxCell>
        <mxCell id="Y3ty23P_71YVdsBofIcM-18" style="edgeStyle=orthogonalEdgeStyle;curved=1;rounded=0;orthogonalLoop=1;jettySize=auto;html=1;startArrow=none;startFill=0;endArrow=none;endFill=0;strokeColor=#666666;fontSize=12;fillColor=#f5f5f5;exitX=0;exitY=0.5;exitDx=0;exitDy=0;" edge="1" parent="1" target="Y3ty23P_71YVdsBofIcM-12">
          <mxGeometry relative="1" as="geometry">
            <mxPoint x="520" y="934" as="sourcePoint"/>
            <mxPoint x="333" y="719" as="targetPoint"/>
          </mxGeometry>
        </mxCell>
        <mxCell id="Y3ty23P_71YVdsBofIcM-23" value="" style="shape=image;verticalLabelPosition=bottom;labelBackgroundColor=#ffffff;verticalAlign=top;aspect=fixed;imageAspect=0;image=data:image/png,iVBORw0KGgoAAAANSUhEUgAAAy4AAAC8CAYAAACe9fp+AAAgAElEQVR4AeydCVhVVff/vwwiICAgIioiaoIDiuRIOGJmDplTZuqbZkrpa4m/UrP01VJfs8ERtcyJ8v+qkKnkkJo544QiOIAgajgBDiggIOP/WZvu8d7LHc6Fiwyu/TyXe84+e1j7c8657HXWWvuYFBYWFoITE2ACTIAJMAEmwASYABNgAkygAhMwrcCysWhMgAkwASbABJgAE2ACTIAJMAFBgBUXvhCYABNgAkyACTABJsAEmAATqPAEWHGp8KeIBWQCTIAJMAEmwASYABNgAkyAFRe+BpgAE2ACTIAJMAEmwASYABOo8ARYcanwp4gFZAJMgAkwASbABJgAE2ACTIAVF74GmAATYAJMgAkwASbABJgAE6jwBFhxqfCniAVkAkyACTABJsAEmAATYAJMgBUXvgaYABNgAkyACTABJsAEmAATqPAEzHVJmJ6eruuwzmNJSUlwcXHRWYYPMgEmwASYABNgAkyACTABJsAEFARsbW0Vm8W+2eJSDAlnMAEmwASYABNgAkyACTABJlDRCLDiUtHOCMvDBJgAE2ACTIAJMAEmwASYQDECrLgUQ8IZTIAJMAEmwASYABNgAkyACVQ0Aqy4VLQzwvIwASbABJgAE2ACTIAJMAEmUIwAKy7FkHAGE2ACTIAJMAEmwASYABNgAhWNACsuFe2MsDxMgAkwASbABJgAE2ACTIAJFCPAiksxJJzBBJgAE2ACTIAJMAEmwASYQEUjwIpLRTsjLA8TYAJMgAkwASbABJgAE2ACxQiw4lIMSdllZGXlITDwMOzsVoqPn18I4uMflV2HRm45P78QS5dGomXLX3Dy5F2p9co+LmkgvMEEmAATYAJMgAkwASZQYQlUCcVl4cII0KeiJysrcyxZ0g1paROxb98gjeKqKwENG67F6NF7ceTIbRQUFGqsoy/TmHwsLMxQq5YlTE1NpG7ljEsqzBtMgAkwASbABJgAE2ACTKAEBCqN4kKT9oMHb2LFiiiVYZIVIDs7TyWvKuyMHdsSyckBiIl5F337NsLkyYewcmU0aLyGJGPyMTMzwYQJrXHkyFvo0MHFEDFE2dOnk7Bs2XlkZuYaXJcrMAEmwASYABNgAkyACbzYBCqF4pKRkYt5805j7tzT0oRZYZlwcFiF778/h/nzT2t0wVKU27IlDseO3cGIEXtQr95P6Nlzq+SmRRPp0NB4DBu2G2ThIFeouXNPITX1qbg6/v47Df7+WxEWdk3laomJeYiuXUNx9myKlH/rVgY+/viQ1M6CBWdKNVG3tq6GYcM8MHmyD4KDLyMuLlVWX4px6+Ojb+zUWUhInMRW4eam7ComCaRno3HjmrhyJRVjxuxXGYeeanyYCTABJsAEmAATYAJMgAmgQisuhYVAZGQKhg7dKU5VWNgAtG9fR2wr3JPIKkHWiS++6CBcsMgN6/jxYWja1F7l9K5efQGLFp3D1KltcfPmOOzYMQBNmtQUZWJiUnH48C3MmdMJ166NBfUTHX0fK1dGCQuHq6stunWrLxSfp0/zpXZPnLgLd3c7qa+UlExMnXoUjo6WiIoahb17B4l2Vq26YLClROoEgIkJ4OdXD+SmdfnyQ3FIX19y+egbO3VGihNxpc/ZsyPQqpWTsniyt52crLB8eXeMGOGJ0aP3YePGWCjzlN0QF2QCTIAJMAEmwASYABN44QhUWMWFLAZBQefxySdHMWNGB8ya1RE2NtVKfIJICVqwwA8+Ps4glydqSxGn0batM4KCeqBFC0dxjBSaPn3chXXgyZNckdetm6sISE9MTBcyPHr0FAcO3MSrr7rBzs5C5JHVJj09BwEBrWBvXx2urjYICPDCH3/cwJ07GSWWnSpSXImzszWuXi0K5jdWX/rGXiqhNVQm5gMHNkFoaD8cPXobEyb8BbJScWICTIAJMAEmwASYABNgAroImOs6WJ7H7t59IlyzpkzxQZcu9YTVoTTy9OrlBg8PB61N3LuXhZ07r2P//r9x/Xoa8vIKQJYW+qbUpk1tNGhgC7KykDUnIeExkpKewNe3rjhOilZsbKqwCNWpYy31Q22QVSEpKVPUlw6UcMPc3BTG7kvf2Esoqs5qpNRNm9YOU6YcxqlTSXB1fUlneT7IBJgAE2ACTIAJMAEm8GITqLCKC8VDrFjRAzNnnsChQ7cwY0Z7kKtRSRM96SeXK02JYl+mTz+GDz9sJSwvDg6WCA2Nw6ZNcVJxsqC88kpd4S42aFATHDiQiLZt68DNzVaUIWWCLAfh4XcQGXlPqkcb5DpWrVrpjFsPHmSD3MPINc2YfckZu8pgjLBDihxZjGihhenT22HAgMZGaJWbYAJMgAkwASbABJgAE6jKBCqs4kLQyUISHPwa1q27hKFDd2H27I4gly2FixeVMTExEa5ctOoYuYNpU060ncTs7Hxs23YV/fs3wqhRzXXW9/dvgO3bE4SF4PjxOwgM9EH16maiaYopadjQVlhj5s71lfK19WtIPo2L+svJyRfubIb0pYuPIWM3RF5dZcnVbs6ck0KRI3cxsrxwYgJMgAkwASbABJgAE2AC+giUzgygr3UjHKdJ+sSJ3li8uCsWLIjAmjUXVVq1tDSDt3dt7N+fiEuXHoh3nZDlgywUchJZQsgiQsH4t29nCGvGnj03sHTp+WLVyQpEMTK0UhgpBM2b15LKkJzDh3sIV7Mff7wgYl1ImSKXst27bxQLzq9Vy0ooXOfOpQh3NJrQawpUp1W/aFUvevHj+PFeaNbMEYb0pYuPIWOXBqpnQ9e4iPGgQb+DFMBly7qz0qKHJR9mAkyACTABJsAEmAATeEagwisuJCpZUUhh+O23/mjduviKVoMHvwSKYXn77d1wdV0jliNOSJD3RnoK1B83zgsuLtbw89uCzp1DQMsckwuTeiLrSvfurjhzJlkE5SvHslDZTp3qYuPG1xEb+xBeXr8IWWbNChcLAahbgkgJmjTJG998EwE3t7WYPfsEkpMzpS7JylSnzmo0b/4zdu++jqVLuws5Fe0Y0pc2PoaMXRJMz4aucdEiBiEh/TBqVDOjWqT0iMSHmQATYAJMgAkwASbABKoAAZPCQnJE0pzS04tW0NJ8VHduUlISXFwMf0mh7lb5KBNgAkyACTABJsAEmAATYAJVlYCtbVH8uKbxVQqLiybBOY8JMAEmwASYABNgAkyACTCBF4cAKy4vzrnmkTIBJsAEmAATYAJMgAkwgUpLgBWXSnvqWHAmwASYABNgAkyACTABJvDiEGDF5cU51zxSJsAEmAATYAJMgAkwASZQaQmw4lJpTx0LzgSYABNgAkyACTABJsAEXhwCrLi8OOeaR8oEmAATYAJMgAkwASbABCotAVZcKu2pY8GZABNgAkyACTABJsAEmMCLQ4AVlxfnXPNImQATYAJMgAkwASbABJhApSXAikulPXUsOBN4vgSePs3HtGnHEBQUBe2vrX2+MnFvTIAJMAEmwASYwItDgBWXMjjXCxdGgD7PI2nrKysrD4GBh2Fnt1J8GjZci9Gj9+LIkdsoKCgskWja+ipRY1oqZWZmYs2aNfD394ednR0GDBiAPXv2oKCgQKVGdHQ0Ro4cKcpQ2V9//RV5eXlSmfz8fJw/fx5LliyBr68vFi5cKB1TbFB5qqfc1+HDh1Fo4KxcTl9yx6WQTdu3nL7klNHWvq78xMR0nD2bjM6d68HERFdJzceex/Wj6FlbX5X1vlCMi7+ZABNgAkyACbzIBFhx0XD2aWJ/8OBNrFgRpeGo7qz8/EJkZz+bQOsuXbqjcvoaO7YlkpMDEBPzLvr2bYTJkw9h5cpoUF1Dkpy+9LV3+nQSli07j8zMXI1FacIdFBSE8PBwrFu3Dg8ePMCECRMwZ84cnDhxQqqTkJCAKVOmoHfv3khOTsasWbMwf/58bN++XSpDG6ampmjdujUaNWqkkk87pJxs3LgRK1euxHfffSf19fnnn+P48ePFyuvL0NWX3HHp60NxXFdfhpRRlKVvOdf8iRN34eHhAA8Pe+WqsraNcf3I6ggQ17a+e7Ay3Rdyx83lmAATYAJMgAlUdQLmVX2Aho4vIyMXixadw6FDt7BwYWepel5eAXbvvoE1ay6KY02b2qN374YYPbqFmMzRRGnGjONYt+6SVGf+/NNiu1UrJ2zY8BqoDk3ad+26gdDQeJw6dRc2NhYYPtwDkya1gYNDdVGengpTW76+dVG/vg1WrowSfTZv7ogffugJV1cbvX1RGeVkbV0Nw4Z5gNomhaxnzwag9vTJo5BF37ior1u3MvDNNxHYsSNBjGvUqGaYPLkNqG9KjRvXRHBwDMaM2Y9583wFN2UZzczMhEJiYmICc/OiS7NLly7w9vbGyZMn4efnJxQOssA0adIEgwcPhpWVFbp37473338fYWFheO2114QVhtoipSUrK0vkK/dD2+np6fjrr78watQovPzyy+Iw1T137pywwrRt21a0rV5P076+vuSMS1O7mvL09UV15JRRblvbNa9cJi0tB3/+mYhXX3WTzicd5/tC9/1OjEp7XyifB95mAkyACTABJvAiE2CLyz9nn7yDIiNTMHToTpETFjYA7dvXka6NY8fuCGUhMNAHjx5NwKFDQ+Hl5YQrV1JFGSsrcyxZ0k1YN+hp7hdfdEBa2kTxOX58mFBaqGBMTCoOH76FOXM64dq1saB+oqPvC+VE3QqyevUFoURNndoWN2+Ow44dA9CkSU3I7UsS/p8Ncu/x86sHCwszXL78UOTqk0duXykpmZg69SgcHS0RFTUKe/cOEuNateqCZN1xcrLC8uXdMWKEJ0aP3oeNG2NBcRPKqVq1apLSopxvaWkpdrOzs3HlyhV4enrCxqZIOSNFp2PHjrh+/TqSkpKUq2ndJtczUmpI8VEkmvB36NABly5dwv379xXZRvnWNy6jdGJgI/queeXm4uMf4f79LHTrVl85G3xfBEDX/W6s+0IFOu8wASbABJgAE3hBCbDiAggrRFDQeXzyyVHMmNEBs2Z1hI1NkZVAcV1kZuYhNzcfNEmmj62thZiADxjQ2CB//7ZtnREU1AMtWjjCzMxEKCJ9+rgLBejJE1UXKppYLljgBx8fZ1GWZDI1LUFwgWIQAGrVsoSzszWuXn0kcg2RR6mZYptkQUpPz0FAQCvY21cXVqGAAC/88ccN3LmTIZUn+QcObILQ0H44evQ2Jkz4SzyRlgqobURFRSE2NlbEodAhUjZu3bqFBg0aCCuMj4+PsJDY29uLOJiHD4sUMrVmiu3a2tqiTZs2whpD7ZEiExERgW+//RYUj0IKUlkm9XGVZV+a2iZLmr5rXlGPrsMDBxLh7V0bdeuqWvL4vlBQ0vxdVveF5t44lwkwASbABJhA1SbAiguAu3efICzsGqZM8UGXLpoDj8m16tNP2+GDD/7EyJF7hKvXvXtZJbo6qN769ZcxYsQe+PpuwapV0UhPzxVuN8oN9urlVsydSvl4abbNzZ+dernyaOuPJsGxsanCQlWnjrVUzNXVVlhUkpIypTzFBrmyTZvWTjzFP3VKs5UkJSVFxLwMGTIEHh4eiqpG+SbrysSJE9GiRQsRK9OqVSts3boV7733nnC1ouOkJAUGBgrXM1ooQPkzaNAgyFWS1AXWNK6y6ku9b8W+nGteUTY5ORPh4XeFa6SFxbPrho7zfaGgVPy7rO6L4j1xDhNgAkyACTCBF4MAx7j8E3uxYkUPzJx5QsSSzJjRHuTWpJyqVzcDWRD+9a9miIq6h23bEvDFF8cxbpwXPvqojXDfUi6vbZtca6ZPP4YPP2wlLC8ODpYIDY3Dpk1xxaqQdaIkqzcVa0gp48GDbJD7iru7ncg1RB6lZlQ2aYJGfvzh4XcQGXlP5Ri5jlWrpjrZJfcwehJNsTbTp7cDWa3UU2pqKubNm4d69eph/PjxQpmgMuTa5erqinv37mHYsGGIjIwUVc+cOSOC8R0dHdWb0rrv4OAgAvspuF+RNm3aBHd3dzg5OYm+aFUy+hgr6RqXsfvSJTPFG+m75hX1z51LEZY+itVST3xfqBN5tl8W98Wz1nmLCTABJsAEmMCLR4AVl3/OOa2WFBz8mgiuHzp0F2bP7ohu3VyLuWZRzEenTnXFhwKVaYnhHj0aSPEw5EZGLmC0ShO52CgrHtnZ+di27Sr692+EUaOaqxwryaWnqy9N7ZE8x4/fQU5OvnBVM0QeXX0Rk4YNbUUcz9y5vqDJrLZES+rOmXNSKDPkLqa+iADVo8n97NmzRRMzZ86EtfUzKw7FulB8y8WLF4VLFx2jFcLI9crNzQ3Ozs7autabTwH7hw4dEnEu5Epm7KRrXMbuS057cq55UjJpoQp//wYifklbu3xfFL/fjX1faGPP+UyACTABJsAEXhQCqo/CX5RRaxknTTQmTvTG4sVdsWBBhFhBjIpS0Pzy5ecxc2Y4btxIE0oJPU0lywsF6Cu7R1lamolYgP37E3Hp0gNRlqwRZOkgywNZICgY//btDBFbs2fPDSxdel6LRLqzdfWlXpNWDwsJicPSpZEYP94LzZo5GiSPrr6IG62Mtn//3/jxxwsi1oUUt4SEx2IlNsWiAzTuQYN+F5PgZcu6a1RayI2K3LMoffnllyCriHIiBapXr16Ii4sTsS3kYkVLJQcHB4PctyjWRW6iZZc3b94sXMJIaaGlmCnAn94dQ/0YM+kblzH7MqQtbde8oo1r1x7j5Mm7Gt/dwvcF8LzuC8X54G8mwASYABNgAi8yAZNCHW/bo8lcSROt7uTi4lLS6uVej5aIvXjxvrCskDAUeE7uYdu3J4iJHLl49ejhigkTWqNly1oq8lJdUnRo1azU1GzRxmeftUOHDi6geIGvvz6D3367KtzRRo5shpdeshcxL2vXvioUG1KKaDnkunVrCFcqlcbVdrT1RW49yssz01LL3bu74v33vcQkVBHkL0ceRZfa+qJxUSJFjdy/du26jtzcAtHfhx+2lvojpY8mu7QymqZEAfFffPEFfvrpp2KHKQZlw4YNaNq0qThGL6Ckl0r+/vvvaNeunYhXGThwoLQiWUhICMaNG6e1nZdeeklYbVatWoVdu3aJcm+++SamTZsmXNGKVdSRoa8vWkhA7rh0dCMO6euL+Mgpo6kf9Wueyvz8cwzo/S3ff99FZRlkRX2+L4Cyvi8UrPmbCTABJsAEmMCLQECX1wsrLi/CFcBjZAIlIEDvbpk06aBwbaR3AHFiAkyACTABJsAEmEBZE9CluLCrWFnT5/aZQCUloHh3S8eOlddyWknRs9hMgAkwASbABJiABgJscdEAhbOYABNgAkyACTABJsAEmAATeP4E2OLy/Jlzj0yACTABJsAEmAATYAJMgAkYkQC7ihkRJjfFBJgAE2ACTIAJMAEmwASYQNkQYMWlbLhyq0yACTABJsAEmAATYAJMgAkYkQArLkaEyU0xASbABJgAE2ACTIAJMAEmUDYEWHEpG67cKhNgAkyACTABJsAEmAATYAJGJMCKixFhclNMgAkwASbABJgAE2ACTIAJlA0BVlzKhqtBrS5cGIHAwMPIysozqB4XZgJyCDx9mo9p044hKCgKhYVyapSuDF/PpePHtZkAE2ACTIAJMAHNBFhx0cyl3HJJeSElxs5upfg0bLgWo0fvxZEjt1FQULJZJ00k6VOWKTMzE2vWrIG/vz/s7OwwYMAA7NmzBwUFBSrdRkdHY+TIkaIMlf3111+Rl/dMYcvPz8f58+exZMkS+Pr6YuHChSr1aYfKUz3lvg4fPoxCA2flcvqSO65iQqplyOkrPj4efn5+gg0xVHw0MVBrXuduYmI6zp5NRufO9WBiorOo0Q9W1uvZ6CC4QSbABJgAE2ACTKDUBFhx0YCQFISDB29ixYooDUefT9bYsS2RnByAmJh30bdvI0yefAgrV0YjP98w5YXKZ2c/UwxKIv3p00lYtuw8MjNzNVanSXlQUBDCw8Oxbt06PHjwABMmTMCcOXNw4sQJqU5CQgKmTJmC3r17Izk5GbNmzcL8+fOxfft2qQxtmJqaonXr1mjUqJFKPu2QcrJx40asXLkS3333ndTX559/juPHjxcrry9DV19yx6WvD8VxXX0pylhaWuLIkSNIS0uTPtOnT1ccLvYt51o9ceIuPDwc4OFhX6z+88qoTNfz82LC/TABJsAEmAATYAKGEWDFRY1XRkYu5s07jblzT6NDBxeVo7duZeDjjw+BrCAtW/6CBQvOqEzmQ0LixPF9+/7GiBF7UK/eT3j99W04cyZZaocmmmFh1+Dvv1UcJ2vK+fP3pOPqG9bW1TBsmAcmT/ZBcPBlxMWliiKkRISGxmPYsN2SPHPnnkJq6lNxXPGk28FhFb7//hzmzz8tWXH8/EIQH/9I6krfuBo3rokrV1IxZsx+qX+pMgAzMzOhkKxevRru7u6oVq0aunTpAm9vb5w8eVIUJYWDLDBNmjTB4MGDYWVlhe7du+P9999HWFiYmKRTQWqLlBaytjg7Oyt3I7bT09Px119/YdSoUXj55ZdFX6+99hr69u0rrDBZWVnF6mjL0NeXnHFpa1s9X19fVJ4UvuzsbNSoUUO9usZ9XdeqokJaWg7+/DMRvr51QdeSctJ33l/U61mZEW8zASbABJgAE2ACFYcAKy7/nAvyMoqMTMHQoTtFTljYALRvX0c6UykpmZg69SgcHS0RFTUKe/cOQnT0faxadUHFCrJr13WEhMTj6687Iy5uDFq0qIXly8+DJpCU9uy5gSlTDmP8eC/cuPE+AgN99Ma2kHuPn189WFiY4fLlh6KdmJhUHD58C3PmdMK1a2NB8pI8K1dGCXmsrMyxZEk3YbWhp91ffNEBaWkTxef48WFo2rTo6buccTk5WWH58u4YMcITo0fvw8aNsaC4CeVEyoq5ublyltgmCwIlmpBfuXIFnp6esLGxEXkmJibo2LEjrl+/jqSkJJGn7w+5npFyQoqPIpFS0KFDB1y6dAn3799XZBvlW9+4jNKJgY3ou1aVmyMF9f79LHTrVl85G3LOO1V4Ua9nFVi8wwSYABNgAkyACVQIAqy4AEJxCAo6j08+OYoZMzpg1qyOsLFRfTpN1o309BwEBLSCvX11uLraICDAC3/8cQN37mRIJ5MUgi+/7AQ3N1vRxpAhL+HGjTQxeaQn5Dt2XMOQIU0xePBLsLAwhY+Ps3gaLjWgZaNWLUs4O1vj6tUiS0nbts4ICuqBFi0cYWZmgiZNaqJPH3dhGXnyRLNLl6am5Y7L1NQEAwc2QWhoPxw9ehsTJvwFemKvLUVFRSE2NlbEoVAZUjZu3bqFBg0aCCuMj4+PsJDY29uLOJiHD4sUMm3tKfJtbW3Rpk0bYaWh9kiRiYiIwLfffguKRyEFqSyT+riM2ZeCEVmhKL6lbdu2WLRoEVJTi6xs1BdZ0vRdqwqZSME5cCAR3t61UbdukbKoOCb3vPP1rCDG30yACTABJsAEmEB5E2DFBcDdu0+E+9aUKT7o0qV4ADNNFmNjU4UFpk4da+mcubraCstDUlKmlGdlVQ1k7VAkUioozoQ+9JQ7NvYh2rVzRvXqZooiBn2bmz87ZffuZWH9+svCLc3XdwtWrYpGenou8vJUA+K1dWDIuBRtkMI2bVo7oYidOqXZSpKSkiJiXoYMGQIPDw9FVaN8k3Vl4sSJaNGihYiVadWqFbZu3Yr33ntPuJnRcVIAAgMDpeB2RZA7fQ8aNAhylSR1gTWNy5h90VgodmfXrl14/PgxgoODsXPnThHL8/RpkQugvmtVWebk5EyEh99F794NhZKsOGbIeefrWUGNv5kAE2ACTIAJMIHyJvBshl3ekpRj/xTDsWJFD8yceQKHDt3CjBntQe5RikQTPbIuhIffQWSkajwKuY5Vq/ZMmVDU0fStUGA0HdOX9+BBtlB83N3tRNFjx+5g+vRj+PDDVsLy4uBgidDQOGzaFKevKem4oeMi9zB6Uk+LFkyf3g4DBjSW2lJskHVg3rx5qFevHsaPHy+UCTpGrl2urq64d+8ehg0bhsjISFHlzJkzIhjf0dFR0YTebwcHBxHYT8H9irRp0yYRX+Pk5CT6olXJ6GOspGtcxuqLZO/Xr58kspeXl4jlobGR0kTWKn3XqlQZwLlzKSBLWatWTsrZwmrD1zPEQwd917MKON5hAkyACTABJsAEypUAKy7/4KdVl4KDX8O6dZcwdOguzJ7dEd26uYqJH1lQGja0FXEhc+f6lthaUru2FerVq4GYmIfCAkPWGDmJXH6OH7+DnJx84RqWnZ2Pbduuon//Rhg1qrnOJW4pjoT6oUUBqB3l5XANGRctqTtnzkmhpJG7GFle1BNN7mfPni2yZ86cCWvrZ9YpinWh+JaLFy8Kly46RgH75Hrl5uamMRBfvX1t+xSwf+jQIRHnQq5kxk66xmXsvjS1Z2FhoRI/pOtaVdQnJZOUcH//BiIuS5FP34acd+V66ttV/XpWHy/vMwEmwASYABNgAuVLQJ6poHxlfG6904Ru4kRvLF7cFQsWRGDNmouib8ofPtwD+/f/jR9/vCBiXUgRSEh4jN27bwglRI6QNWtWFxNJCt6n97Lk5BSIYP2ff47RWp1WD6PVnZYujRQB/c2aOQrlgSw9FIx/+3aGeIJOQf9Ll54v1o6lpZmIcdi/PxGXLj0QCgw9bScLjtxxUT+DBv0uZF+2rLtGpYUsAuSeRenLL78EWUWUEylQvXr1QlxcnLT6Fy2VTO5Q5L5FsS5yEy27vHnzZuESRkoLLcVMAf707hjqx5hJ37iM1Re5r33wwQfYsmWLUOzoXTW0etratWtBq6apr7Cm7VpVyHPt2mOcPHlX47tb5J53RVvavqvy9axtzJzPBJgAE2ACTIAJlB8BVlzU2NO8lwLmf/utP1q3fuZi06lTXWzc+LqIUfHy+gWurmswa1a4CMCXO1emcmPGtMBHH3nj00+PoGnT9eKp+LvvNkgCkogAACAASURBVFeTAsLyU6fOajRv/jN2776OpUu7Y9w4L2ExIQsKbbu4WMPPbws6dw4RVhxy39KUaCGAXr3c8Pbbu4XctKRzQkJRkL+ccdnZWSAkpB9GjWqm0dpEAfH0ksRt27Zhw4YNaNiwoRRfQi9UpBcrUiKLy+LFi7F3717UqVMHZJWZPHkyBg4cKIkdEhIi6tJxeicMveeFYlMU7ZCVhqwq9K6TZs2agdyp7t69K8qS5caQpK8vueOS06e+vshV7osvvhAWKFpKmvbJBW3atGn48MMPJZc75b60XatUhpbgbtmyltZ3t8g578p9adquqtezprFyHhNgAkyACTABJlD+BEwKaSaoJdHT7JImWt7WxUX1PSglbYvrMQEmIJ8ALb09adJB4UpI7wDixASYABNgAkyACTCBykJAl9s/W1wqy1lkOZmATAKKd7d07MgPDmQi42JMgAkwASbABJhAJSDAFpdKcJJYRCbABJgAE2ACTIAJMAEm8CIQYIvLi3CWeYxMgAkwASbABJgAE2ACTKAKE2BXsSp8cnloTIAJMAEmwASYABNgAkygqhBgxaWqnEkeBxNgAkyACTABJsAEmAATqMIEWHGpwieXh8YEmAATYAJMgAkwASbABKoKAVZcqsqZ5HEwASbABJgAE2ACTIAJMIEqTIAVlyp8cnloTIAJMAEmwASYABNgAkygqhBgxaWczmR+fiGWLo1Ey5a/4OTJuyWWwljtlFiAcqxYGcdekF+AQ0sPYX7L+bhx8kY50qv4Xe9fuB9bA7ciNyu34gv7gkv49Gk+pk07hqCgKGh/pXHpIBnrfjdWO6UbTfnUfpHHXj7EuVcmwASMTYAVF2MTNaA9Cwsz1KplCVNTEwNqFS9amnYePszGoEE7ERISV7zhcsxZuDAC9NGXSjN2fW2X1XEzCzPUqFUDJqU872Uln3q7pEDQR1vKycxB+JpwLPNfhk/tPhXfJ9aeqLAKx50nd9Di5xbiQ9vv7XsPdivtsCNhhzREynNf547o+9FS3tcRX0t1Dt8+DJefXLD8/HLpOG3EP4qHZ7AnZobPRCEKxbG0nDRMPzZdtEf9ULufHf8MGbkZ4rgceVQ60bCTlZWFwMBA8aFtRQoJCYGfnx/i4+NFlvo+ZR47dkyUoe+SpsTEdJw9m4zOnevBpHQ/ZzpFMNb9Xpp2+DdT5ynig0yACTCBMiXAiosGvAUFhTh48CZWrIjScNQ4WWZmJpgwoTWOHHkLHTqU/A3nxmrHOKMyTiv0VDA7O09vY5Vx7KZmpugyoQsCjwSiYYeGesdY3gXIQpSbrd3iQUrLzlk7cXHnRQz6fhC+Sf0GI34agYeJD5Fxv2hiXt5jKGn/D7Mf4qeLP0kKiHI7r9R9BW80egPrL69HUmaSOESKSvDlYFiaWyKgVQBMYILHTx/j7d1v4/drv2N1z9V4+OFDbOu/DQmPEvB32t/KTercPn06CcuWnUdmpvZzobMBLQevXLmC2bNnC4WHFBxNSc7v4YkTd+Hh4QAPD3tNTRglz1j3u7HaMcqgjNRIRfrNLKtr1UiouBkmwAQqOQHzSi6/0cXPyMjFokXncOjQLSxc2Flqn9wfjhy5je+/PyuONW1qj/HjvTB6dAtYWRVhzMrKw4wZx+HrWxf169tg5cooUbZ5c0f88ENPUB2ybIwb96fULm3s2zcInTrVlfKor4iIZCxefA7x8Y9w5UqqdGzs2JZYsMAPv/9+TW871NexY3fQv38jbNhwWcjSurUT5s59Be3b15Ha1LchZ+zURmrqU6xffwn/7//FCrm7d3fFuHFe6NvXHebmpmLStWvXDYSGxuPUqbuwsbHA8OEemDSpDRwcqkPBb926S5JI8+efFtutWjlhw4bXDGKo73wZiw9N3i/tuoTI0EjcOHUD1W2qo+3wtug6qSusHayF/OdCzuF/4/4njYs2Ju2bBPdO7lIeuUSFzQiDu6877Ovb4+jKo4g/FA+X5i4Y/sNw1G5aG9TOlT+voLFfY5wKPoXk2GQ069UMff7TB05NnERbhYWFSDiSgAPfHxD1qZ7feD90HN0R1ayqiTL6+rJ3tReynFh3QpJv7/y9Yrteq3r414Z/CXlIFupr1PpRqOtVdA2THP2+7CfVkyNPYUGhUH4OLjkojSkvJw92deykdmjj0a1H2P/NflzYcUFwbj+qPbpP7g4LawuVcrp2bKvZwtXWFfkF+bCpZoOX7F+CnYUd6tvUV6nmbO2MA4kHcOH+BbR2aq1yrJppNXzQ6gMM/H0gQuNC8VGbj3D98XVsvboVo1uMhputmyj/c8zPiLwXiS19t6Bb/W4iz8fZB6H9QqX25MjTuHFNBAfHYMyY/Zg3z1coCVIDJdxISUnBnDlz0L9/fwwaNAgmGkwl2n4PlbtMS8vBn38m4tVX3WBtXXR90XE5vxuKe55/M6vOb2ZZXKvK1xtvMwEm8GITYMXln/NP/2TPn08Riscrr9RDWNgA2Ng8+ye8e/d1fPzxIcyb9wq2bu0vlAnav3kzA//5T0dUr24mXUmrV19AzZrVMWtWB/zyy+tiQm5tXYR62DAP0IcSKSVjxuyT6ik2rl59hE8+OYKPPmqDIUNewtatV4VCQMqPm5utKCanHSq4a9d1ZGbm4euvO8PR0RL/+c8JLF9+HkFBPWBnJ2+yJ2fsKSmZmDz5sHB7CwnpB3d3O0RGpmDbtgR06VJfKCYxMak4fPgW5szpBE9PB9y4kYbPPjsmFLzPPmsvFMAlS7oJxYwUwLp1a2D69HYKLNK3nLHLkdlYfJJikhB/OB595/SFs6czHt54iB2f7RCKR6/PeoGsLC8Pe1l8qM978ffwy5hfpPGob4SvDodVTSv0ntUb7/7yrnC5Up6Yn918FjXr1cT438YjPy8fe77aIz5Dlw6Flb0VLu++jNCPQ9F/Xn+M2zoOKVdSxH7qzVSh4JhXf3bba+uL3NiGLBmCAQsGCAXGrq4dek3vpSJqXnaeGDcpUQqlSaXAPzty5Lm85zK2TtkqZPYZ4oM7l+5gz5d7VJpLT0nHtqnbUMezDmZEzcDTjKdi/9iqY+ge2B05uU+wZs0Q3LhxUqUe7djbu+Kjj/5EzZr1YG5qDitzK1GGFJBalrVgYWYh5SkqkyJDSgVZXZZ1X6bIlr69a3ujj3sfYXV5y+MtYW2hdkZ4jhBlnuQ+we4bu4XS83Ltl6V66hty5HFyssLy5d0RFnYNo0fvw7//7Y233mqq8ruj3q6u/SdPnuCHH35A7dq18cEHH8Dc/Nk1QfX0/R4qt02/Y/fvZ6FbN1XFT+49SG3xb2bV+c009rWqfK3xNhNgAkyAXcUAoVgEBZ3HJ58cxYwZHTBrVkcVpYWeOu7YcQ1DhjTF4MEvoVo1U3h51UJgoA/onzP941ZO9E+frCI+Ps4gtwRSgAyJY4mOvi8m+j16uIp69E19njmTrNyNrG2y8nz5ZSeh8JAcpAiRwkATDTlJ7tj/+ONvkJ87KSVNmtQU427Xrg7mz39FjIX6atvWWShMLVo4iuNUrk8fd6EEPnliPBcYuTKTTKXlQ224tXXDsKBhcGnhIpQUmsS36NMCyVeSkfMkRw5mlTJkoXhjwRto4NNAtEcWHOV4GM+enuj+cXehpNg42aD9iPZIOJaAlPgUMZmP3hGNNkPaoM3gNjCrZiYsIT0Ce+DS7ktCaVLuTF9fymXVt8mFLDUxFaTUKCw56mVIudAnT7EyFmZi7I18G6k0Rxatp+lP4RfgJ8ZOViHavvzHZTy+8xiWlraYNGkfvvsurdhn5szLQmmhBklpcazuKD60XbdGXViaWcLB0kGlv+pm1TGmxRhhdbl4/6LKMdohpYcsLY+ePsK3Ed8iJD4E41qOk6wt6bnpuJVxC/Vr1IetRdEDh2KNGCAP/YYMHNgEoaH9cPTobUyY8Bdu3VJ1x1u3bh3q1KkDOzs78Rk3blyxLjMzM/Hdd9/hp59+AlldSIlRTmQF0fV7qFyWfusOHEiEt3dt1K1rIx0y5B6kSvybWbV+M+Vcq9LFwhtMgAkwAQMIsOIC4O7dJ+JJ5pQpPujSpXhwKVkTYmMfol07Z5UnnOQCRq4Ryq5cxL5XL7dSuXKQ61leXiFycwvEqaRv2le4pBlwfmFlVU2lHilS5A9NHzlJzthzcgoQE/MQL7/sDFfXZ5MXTe3fu5eF9esvY8SIPfD13YJVq6KRnp6LvLyisWqqY2ieHJkVbZaWj6KdjHsZOLn+JDaM2IDvfb8HWQFokl1QgnGR65ezh7Oiab3fFOhv52KHB9cfgKwS5D7m1s4NypYVcjcjqw0pU8rJ0L6U68rZliOPtjLK7ZNrmxhXezfY1nmmBDi4OiDvaR7SktKUi+vdXv/aetCH0ptN3sTldy+jXo16xep1qd8Fno6eWHdpHUjJU0+tnFqhX6N+wipDShBZXkqS5MpDbdM9Nm1aO/Hw4dSpovgaRZ9jx45FcnIy0tLSxGfNmjWKQ9J3QkICIiMjERQUhIcPH2LXrl0qY9P3eyg1BCA5ORPh4XfRu3dDWFg8+3diyD1I7fFvpjJV1e3K/Jup61pVHSXvMQEmwATkEVD1D5BXp8qVIp/cFSt6YObMEyIOZMaM9iBzd0kTPW3S4C4uuzmy5pCyQlaMt99uir/+uin2Kb8iJgrezcnJ1ysaxdtMn34MH37YSlheHBwsERoah02bKtaKZnoHolaArB07pu9A5w87C8uLlYOViHc5u+msWkl5u2Rd0RRvoK02TagpRoQsM4YmQ/tSbr+aZTU4uDmIuBNSLLRZXZTraNouzC8ELQKgK1H7FN9yLfwabkXeUilq7WgtLEvZ2emyXMVUKuvZsTa3RoBXAD49+ik6unQsVpoC8P/V7F/47epvGPLSELhYP1toQ8Su2LgiMT0RtLIYxdGUNtGywxQjRguHkBvlgAGNDW7SxsZGxLYMGTIEBQUFwvJCgflNmzYVbRnye3juXIqwClMMWmkS/2ZqpleZfzONca1qpsK5TIAJvMgEnj0ie5EpAMJCEhz8Guif9tChu8SqYjQhp+TsbI1mzRwREZEC+jFWJLIy0Co/FK9hzETxMI0b24EmBSNG/IFLlx5gzZpXpfgWY/alry05Y7e0NBOuIiQnPWnVlLKz87Ft21WxUMCoUc1FvI025Y4m7WQZIv4aHnJral4lT47MKhVKsUNxHlHbouDV3wsUKE6TaEOUjlJ0LVUlSwS5bTm6OcLW2RZ1mtVBYkSisEQoClEcDi0iQPEhhiQai4mZiVCM1C0O5pbmaNqtqXgfzf2E+xqblSOPTW0bEbNDMmpTYEgpcmzoCHKTG7tlLAK2B6h8XNu4ynYV0yiojszurt3R2K4xziSf0VjK1MRUrCBmZvoszo0K1qhWA33d++LSw0siQF9jZQMyyRWT3MPITYzcxchtjCb8hqZGjRqhTZs2MDU1Rb9+/dCgQQNs2rQJeXnPVvKjFcK0/R4q+qPfQlrExN+/gbifFfn0/TzvQeqPfzMr1m+msa5V5WuKt5kAE2ACRIAVF6XrgFyxJk70xuLFXbFgQQTWrCnya6fYkDffbIz9+/8Wwe5kDYmNTQWtftW3byMRJ6HUTKk3Dx++DXK/oniR7dvfwH//61cuSgsNRO7YX3+9IerUscaXX54SMTTkikbB+QEBB4QrHcXo0OIAFL9z+3aGiCvas+cGli49X4yXQhHavz9RKG2kwJAv/4MH2cXKasqQK7OmuobmmVYzRQ3HGrgdfRuPbz8WgfQUaE4vmSyrdPPcTVzcdVH0RUoLrfzVsm9LscoXWV1av9kasftjxUpn+bn5wsVKuYwhcpFy4urtKtpLupQkFBiyfDx5UBQX4fmqJ5p0bYLfZ/6Om5E3heJBSkzwqGBEb48WViB98ljWtISHvwciQyLFCmX5Ofkghqd/LlpRjuQlxYVWaqNxHfvxGLLTs4Us1BfF7mhTeAwZq7ay5AI20Xsi7mTc0VZEa/67zd+FT20fTDgwAfv+3oe8gjxEpkSi7f/aYmnkUq311A/QfTNo0O9CSVi2rLtel0z1+tr2KTj/X//6F7Zt24YLFy6oFNP2e6godO3aY/HyXE3vbnme9yDJw7+ZRQ+PKsJvZlldq4rrjr+ZABN4sQmwq5ja+ScrAAXV//Zbf1y8+OwpMikotHwvLYdMK4EpL4esvKKYWnMl2n3llbrYuDEWjRqtU6lPywvTwgGGLGWs0oCOHVqiWdsyzXLGTk9YadWjH3+8gCFDdkrLIb//fkuxwhhZUGhp5K+/PgM/vy3CFW/kyGbC3YViXtQTLYJACs7bb+9Gamq2WC76s8/aoVatZ6446nWU9+XIrFy+pNu0Ytgr417Bvq/3YZHfItRwqoH2I9uLFbgo5qUsEgWlJ11OwjftvhHNk6Wn20fdpJiWFn1bCIWBlkOm1cuUl0NWjnuRK5v3YG88uv0I695eh8zUTDTq1Ai0WhrF1lDcTP+5/RHxvwhs+2SbsPRQfA0xaN67uehCjjydxnQSlqrfPv0NT+4/EUpKh3c7IO3us9gVWjp69MbROLLiCP7r9V+QUta0e1PholfWVi6yutC7WxIeJ8jFJsrVrF5TLIU8//R8BBwIAL0bxtHSEcM9h+N9r/dlt0UrANJqfbSghbFT165d0aFDB6xfvx6enp6wti5awpv60fZ7SMdosZCWLWtpfXfL87oHSRb+zYRYOKYi/GaW5bVq7Guf22MCTKDyETApVPf/UBpDenq60p5hm0lJSXBxkTfJNKzlql2aXKN++CEaN2+mCyVFEZBPbhlz554Slor58/1AVglOLx4Beo8Lxc6MXDtSuKW9eAR4xBWBAL27ZdKkg8L1U7G8e3nJxb+Z5UWe+2UCTIAJlA0BW9tni/Co98CuYupEynmf3NDIP5jeA6Psv04r/cTFPRIvt2SlpZxPEnfPBF5wAop3t3TsWP4Pp/g38wW/GHn4TIAJvFAE2OJSAU83xXOsXBkFWurU1tZCBKlTfMjYsS1B/uTKCk0FFJ9FKkMCbHEpQ7jcdKUlwL+ZlfbUseBMgAkwgWIEdFlcWHEphoszmAATYAJMgAkwASbABJgAEygPAroUF3YVK48zwn0yASbABJgAE2ACTIAJMAEmYBABVlwMwsWFmQATYAJMgAkwASbABJgAEygPAqy4lAd17pMJMAEmwASYABNgAkyACTABgwiw4mIQLi7MBJgAE2ACTIAJMAEmwASYQHkQYMWlPKhzn0yACTABJsAEmAATYAJMgAkYRIAVF4NwPSt88uRd2NmtxEcfHRIvhXx25PluPXyYjcDAw/D334rIyJTn27mG3iqaPBpELNesqsonJCQEdnZ22LRpU7nyVe88JuYh2rffhCVLIsWy4urHaZ/vZU1UgKp6rWoereG5zMdwZlyDCTABJlBaAqy4lJZgGdWnf4qDBu3UqxglJDxGSEgcIiKSsX9/Iugt0mWRKpI8FWWiqcy5IvFRlkvXdlpaGt59912hcIwYMQKPHz+Wij98+BCDBg2Cr68v4uLiRH58fDz8/Pzw5ptv4v79+1JZfRsnT54UfZBio/xZsGABCgsLkZWVhcDAQJVjDRs2xMcff4zExER9zes8/tdfN/H48VN06VK/3N5/VNGujYokD9/LOi9fPsgEmAATYAJqBMzV9nkXEJP/I0duIy3tKd54o3G5MHnwIBspKZlwdbXR2b+XVy385z8dceVKKoYP94SJic7iJT5Y0eQp8UDKqGJF4rNz53XY2FRDt26uOq+Ha9eugZQKFxcXnDp1CgkJCXj55ZeNTsjS0hL+/v5Suw8ePEBUVJS0r7zRvn170PrtVGbDhg1CaVq7di3q16+vXExsk5Ku6z599OgpwsPvokePBvDwsC9W/3llVKRrg8Zc0eR5XudBbj8ViY/ce1nu2LgcE2ACTKCyE2CLi9oZvH8/C3PmnMA77+xGRkaudPTp03ysWXMRLVv+grZt/4ctW4qeQksF/tmIjr6P0aP3ol69n0S5X3+NR15egVSMtsPCrmHw4J1Smc8/P44bN9KEwhQf/wh+fiGi7oUL9xEcfBl16qwWbmlvvhkGki8rK0+4h5GrGh2bNu0Y1q69hJs306V+FGWozvnz9zBjxnEh+8iRf4CsNIpEb5z+5psIdOlCrj4rRZlVq6Il9zdjyUP90UTz8OHbGDAgTPT1+uvbxL7CSiRXZoXsur719aWom5iYLrGh8Q8btltMhgsKikxXlZFPZmauYDxrVri4XhRjVf8+d+6cyAoICBBWj4iICPUiRtlv06YNtm/fLn0++ugjre1+9dVXotzevXsxZswYhIeH4+zZs8XKa7tPlQvSdX/w4E28/ro7bGwspEN8L/8PpfltIZD67i++l43zWyf3XpYubt5gAkyACVRxAqy4/HOCaaK6d+/f6N17GzZsuIwvvuiA/v0bSad/x44E/N//HRH79evbYN++4i4s5Pbwzjt7cOjQLbz8srMoO3bsfoSGxkvtUB8ffnhA+I9Pnuwjnorv2HENW7deRU5OPqpVM0XTpvZo376OqNOggS169HCFv38DuLraCncXExMTODlZiTw6RmW0pYMHb6Fr11CcOpUkivz++zWhgOXkFIjJx/btCZg37zQsLMzQtWt9ZGTkYPr0Y9i06Yoob0x5du++LhRCUpy6d3fFzZsZeOONHSCZlJMumZXL6dqW0xdZqcaM2YcVK6Lg6FhdcL506YGY1FHbNDmrjHzoul2wwA+//BKDbt1+Fde1QhFTMMvMzMSZM2fQrFkzdOvWDS1btgQpLhkZGYoi5fptbW0tWVmePHkiyaLvPlUUzM8vxOHDt9CsmSNat3ZSsTzxvVz63xY59xedC76XS/dbJ+deVlzz/M0EmAATeBEIsKsYgLt3n2DOnJNisv7OO56YMaM9Gja0kyY7aWk5IJO9i4s11qx5FZ061UV4+B306bNdukboyVhwcAxSU7OxYoU/3nyzMZKSMhEQ8KeYmPft646aNasjNjZVWHJ69XLDxx+3gZWVOdLTc2Buborq1c3g7m6HDRteEwHDr722TSgn33zTWZSTOgMwc2YHsUtPNsmasm7dJeXDKturVvnj7bc9EBV1XygORTLkwNHREsOHe2DAgMbCJc3U1ERYQMaP349jx+7grbeaGk0eYkhWKnJhWreuFzp2dMHZsylCns2br6Bbt/pCeVIIrktmRRlt33L6oifwZA2j2KDZszth0iRvwV9xLogFpcrIx9q6Gv79b2/h5jh//mm89dYuDB3aFPPnv4K6dWuIcd2+fRvR0dEg1yx3d3c0atQIFy5cwJ07d+Dh4aEN7XPLv3nzplCkyI1NIY+++1RZuFu30sW1TApyw4bPFHu+l0v/2yLn/qIHIYrE93LJf+vk3MsKzvzNBJgAE3gRCLDiAuDvv9OE0jJxojc+/7w97OyeuZXQRZCcnCncq+jpbZMmNYVCY2amGkxCSgo9rSfrBz0VPn78DnJzC0Rbf/+djpSULKG4kJJAVpeFCyPEk35yY3nvvRbw9a1bZtcbKUOkGNG4ate2RkFBgbTCEikv164lY/36SzhzJllYG1JTn+LBgyyQS43tszlfqeQj1x5yh2vevIghNdaokR1atnSCgo9yPI8umfUJIqcvsqaQKxGdz1dfdRNKC7Vra6t67iszHzc3W3z/fVehoJJV6f33W0qKS0xMjFBU3nvvPTg5OcHT0xObN2/GxYsXJUVBH+eyON6nTx+VZsePH4/mzZuLPH33qXJFsjDGxj4UCj5d+4rE97KCRMm/5dxffC8b97dO171c8jPJNZkAE2AClY8AKy6AsK6QpWXlyigRED9nTifQPwr1RIHviifx6sfINYU+tPzqe+/tUzncqpWTtE9uYNu398ehQ7excWMM/vjjhnjy/8EHrfDVV77FLCtSxTLYoHib5cujMHv2CREHMGpUMzG+BQvOlEFvFbNJmtRaWDyb2CpLWdn5UPwOWVzI7Y+ub7IiUsrJycGJEyfE9v/93/+BPopEwfr9+vVT7D73b0Vwft26dfHWW2+JVc2srKyEHCS/nPuUrJ/kokTWljZtamscA9/LGrFU6swX8V6u1CeMhWcCTIAJlICA5hlbCRqqzFXIfYbcGUJD+yEq6h46ddqMZcvOgyZAlGrXtkK9ejVw8eIDXL+eJvLS058F7lMGPZmvU8dalA0LG4C0tIni8/jxRBw9+paIW6Fy5O6SlpYLch373//64PDht9CuXR3hmqUcXG9paS5c0+7dy5QC5UXHRvxDE9tt266KCV5QUHexKhkpVppSaeWhmByyoigzJJaXLt0X+cTYWElOX+SC8dJL9mI1NoqxUSygQOecloulVFn50BjIwkILLpArHF3XK1b0kFaooxW7yE3MwcEBXbt2FSt+0TftUz4tdUwxJo0bN8alS2SJOyOsdBTMT+5k5FZWo0aRy5mcc3bs2DEsWrRILADw9OlTkLWHkpubW7HqiuD8VatWCbkUSgsV1HefKhqLi3uEAwcS8cor9eDgYKnIFt98LwN8L1ee3zp997LKxc07TIAJMIEXgABbXP45yWRJ6d27Idq2dcby5efx9ddnhBJCT3gpNoWC48nFa+jQncLdiSwryqlWLUuMGOEpYlNo1SwKrie3I1JGPv20rXhSTP+EyJpBsRXkIkaWmGvXHguXFnJXIjcuRaJJPrmPbduWgF69fhMuaPb21fHdd11EYL6iXGm+afLu4FBdPJ0eMmQnatSoBloVjVZTU7c4lVYeclOjOJs//0wUDL28nITrGPVF+cQ4OzvPoOGEhSXg+vXHwg2OKhIfspaRrPr6oifuw4Y1FSu80eIEpLyQ8nn16mP07NkAX3/th8rKh+KxyNIyfrwXJkzwFgqwMtjY2FgcPXoUY8eOBb1LhZQDCsonywu5i12+fBm9evUSigO9UHLChAniQ23Y2NiIfFriWE5KTU0F/3UjmAAAIABJREFULWe8detWzJkzR6rSrl070IcWmjAk6bpPqR1yAaT4LLqeyOKi3jzfyxD3R2l+W/he1n3FGpOPvntZtyR8lAkwASZQ9QiwxUXtnNLT+jlzfLFpU18RSE6HafIzenRzEbSvKE6xAzQxUk5DhjTFnj0DRSD01auPQEsJ0wShRQtHEVNCE+Fp09ohMNBHxNWQi9b58ylCsfnmmy5CiVC0R5NwWtls0KAmwkoTGZki3LiUl2hWlC3pNy02MHNmR7zySl0Rw0MWI3o6P3p0i2JNGkOevn0bCa7e3rVx9OhtEV/y//5fH7F6m/oEs5gAGjIoFofe40EvGaQPrRJGK7NRktOXj48zQkL6glzkyLpCMS+0SADFgiieSldGPrTwAHGlRQfoHCsneuEjWVAoeXl5QaGAkELi7e0t8ml1MSrXu3dvLFu2TCgYdIAUDdqnfLkKB1lxvv32W0ydOhUNGjQQig+92HLx4sWliqXRdJ+SjBTDsn//3+K+a9y4yDVODOqfP3wvFyn4pf1tkXN/KXPXt833smZCuu5lzTU4lwkwASZQtQmYFNIMRUtKT3/2XhAtRbRmJyUliRfbaS3AB5gAE6gyBEJCQjBu3Dj8+OOPeOedd8ptXLQU+YgRe8TKfgMHNilmcSk3wbhjJsAEmAATYAJMQBYBehG1tsQWF21kOJ8JMIFKRYBWwdu9+4Z4hxItt10SK16lGjALywSYABNgAkzgBSPAMS4v2Ann4TKBqkqA3oNE7zzixASYABNgAkyACVRNAmxxqZrnlUfFBJgAE2ACTIAJMAEmwASqFAGOcalSp5MHwwSYABNgAkyACTABJsAEKi8BjnGpvOeOJWcCTIAJMAEmwASYABNgAkwAALuK8WXABJgAE2ACTIAJMAEmwASYQIUnwIpLhT9FLCATYAJMgAkwASbABJgAE2ACrLjwNcAEmAATYAJMgAkwASbABJhAhSfAikuFP0UlEzArKw+BgYdhZ7dSfPz8QhAf/6hkjXEtgwksXLgQgYGByMrKMriunAr5+flYunQpWrZsiZMnT8qpUuoy9J6UadOOISgoCtpfW1vqbsq0Ab4vyhQvN84EmAATYAJMoEwJsOJiIN6FCyNAn4qerKzMsWRJN6SlTcS+fYM0invy5F1JsVEoOMrfFXWc9JZ2Ozs76UOT98mTJyMxMVHjOMs7kxQLZXnVt0nJKUmysLBArVq1YGr6fG7jxMR0nD2bjM6d6xV7uSPfFyU5g1yHCTABJsAEmAATMITA85nxGCJRBShbUFCIgwdvYsWKKBVp8vMLkZ2dp5JXmXc6daorFBtSbs6eHYFWrZywZs2rUt706e2e+/BOn07CsmXnkZmZq7PvVq1a4ezZs0hLS8OBAwdQWFiIadOm4d69ezrrlcfBTp06CTlJVpKZZF+zZo2UN336dIPFMjMzw4QJE3DkyBF06NDB4PrqFbRd88rlTpy4Cw8PB3h42Ctng+8LFRxlsiP3viiTzrlRJsAEmAATYAIVhAArLmonIiMjF/PmncbcuafRoYOLOKpwL3FwWIXvvz+H+fNPS5YKZRcsRbktW+Jw7NgdjBixB/Xq/YSePbdKblo0IQ8NjcewYbvRsOFatGz5C+bOPYXU1Keir7//ToO//1aEhV1TkSwm5iG6dg3F2bMpUv6tWxn4+ONDUjsLFpzRO+GXKsvckCtPSEgcAgIOIDj4spCfxj169F4kJDxW6UmfzI0b18SVK6kYM2Y/4uJSVepq23FxccHbb78tJvE3btwQxUiROXz4MAYMGCCsHW3btsUPP/wguW6RCxe5cqm7c6m7eJF15+OPP8a+ffswYsQI1KtXD6+//jrOnDkjiVNQUICwsDD4+/uL46NHj8b58+el43I3FDJt2bIFx44dk/rr2bMn4uPjRTPq1iay3qi7ilGZgIAABAcHq8iUkJCgURRN17x6wbS0HPz5ZyJ8fevC2rqaOKy43vm+eEZL/T4tz/vimVS8xQSYABNgAkygahBgxeWf80g++5GRKRg6dKfICQsbgPbt64hthdtVcnIAxo5tiS++6CBZJY4fH4amTVWfQK9efQGLFp3D1KltcfPmOOzYMQBNmtQUbcXEpOLw4VuYM6cTrl0bC+onOvo+Vq6MEk+uXV1t0a1bfaH4UEyBItHTbnd3O6mvlJRMTJ16FI6OloiKGoW9eweJdlatuiDaUdQr7TfJ07NnA+zZc0NFKTpzJllFHupn8+YruH49Db/91h/R0aNQs2Z1fPXVSTx6VKSUyZHZyckKy5d3x4gRnhg9eh82boyFMgdt48nJyYGNjQ2qVSuaVO/evRtjx47FO++8gwcPHohJPE3o582bh6dPi+TR1pZ6/q5du0B1v/76a8TFxaFFixZYvny5sJhQ2T179mDKlCkYP348SHFSV4bU29O3v3r1aixatAhTp07FzZs3sWPHDjRp0kRUGzZsmGSpUVhvNLW3efNmXL9+Hb/99huio6NRs2ZNfPXVV3j06Fmck65rXr1Nio+6fz9LXJuKY3xfVPz7QnGu+JsJMAEmwASYQFUgwIoLAHpyHBR0Hp98chQzZnTArFkdYWNTNAEuyUmmCeGCBX7w8XGGmZmJaMvU1EQ01batM4KCeqBFC0dxjBSaPn3chZXhyZNckdetmyso/oRiCijRxP/AgZt49VU32NlZiDyy2qSn5yAgoBXs7avD1dUGAQFe+OOPG7hzJ0OUMcYfkn/w4Jdw6dIDkNJFSfH0XVkeyu/Z0w0ff9xGyEMKCCkfZHlSLAogV2ZiNXBgE4SG9sPRo7cxYcJfIEuNtpSUlCQUC19fX7i7uyMjI0NM9ocMGYLBgwcLZcbLy0soFKTQKKwX2tpTz2/atCm+/PJLuLm5CeWI2iUF5f79+8X6orgTHx8fkCwlTWQtWrBggWiHXMJIITM0joWsNGQpsre3h5OTk7DekBVHMXZDrnm6ng8cSIS3d23UrWtT0mGJgH6+L57ffVHiE8UVmQATYAJMgAlUUAKsuAC4e/eJcM2aMsUHXboUDzw29Nz16uUmYgG01bt3Lwvr118WrmS+vluwalU00tNzkZdXIKq0aVMbDRrYgqwslMjdKinpiXDToX2adMbGpgqLUJ061qIM/SHrCFknkpIypTxjbJD7FsXDkFJE8QykiNy+nSHJo62PWrWs4OJSA9evPy6RzKSMTZvWTjzpP3UqSaWbCxcugNy/yFXq5ZdfFpP7+fPni4l6SkoKYmNj0a5dO1SvXl2q17x5c1hbW+PKlStSnpwNKysr0EeRSJmgVb3oo60vRdmSfPfq1QseHh4lqaq1DgXxk0sdWWEoGXLNJydnIjz8Lnr3bggLi5L/ZPB9UXR6yvK+0HoB8AEmwASYABNgAlWAgHkVGEOph0AT8xUremDmzBM4dOgWZsxoD7IYlDSRxcCkyMBSrAmyQEyffgwffthKWF4cHCwRGhqHTZvipLJkQXnllbrCWjFoUBPxtLtt2zpwc7MVZUhxIQtEePgdREaqBqOT61i1aiWfXEpCKG1Ur26Gvn3dRWzPyJHNismjVFRlkywHFPRtY2MhFBdDZCYFjCw0tEACLRIwYEBjlbYpwH3Dhg2g+BJy0erYsSNcXV1VyjyPHYUCY8y+yLpiou0CKmFHReeiQCh41IQh1/y5cymga5oWbyhN4vuiiF5Z3helOT9clwkwASbABJhARSfAiss/Z4hWSwoOfg3r1l3C0KG7MHt2R5DLFk22FIkmk+Q6RZNxcp8xdG6ZnZ2Pbduuon//Rhg1qrnO+v7+DbB9ewLI0nD8+B0EBvqAFAhKFFvQsKGtiHeZO9dXylfIWRbfZAVydrbGzp3XQfEt//63t95+ySpEq7CRwmWIzOQiN2fOSaGAkbsYWV60JbJMUBwLxYXQ6lrkzuXs7IxmzZohIiICb775pmR1iYmJQWZmJjw9PYViQJYTio1RpLy8PDx58kSxK+u7du3aIiCf2iYlhtqsiIksUNnZ2YKPQj451zwpkKTM0/VISrGmxPdFxbsvNJ0nzmMCTIAJMAEmUNkJGPfRfCWnQZPriRO9sXhxVyxYEIE1ay6qjMjS0kz4+e/fnyhiPkiBISvCgwfZKuW07ZAlhCZ/FIxPrlZkOaGg96VLi69ARU/EKUaGVgqjiWHz5rWkZknO4cM9sH//3/jxxwsi1oVkIZey3buL3LmkwgDINYUULnpyTu5opBjICXhXboOsQG+/7YHFi88hN7cAzZo5Kh8W2+fOJWPXruuSWxgpgX37NhIKllyZic2gQb+LifKyZd11Ki3UKbEh5YRiSyggnZQPigmhvP3794MC63Nzc4Xr2Lp169C3b19QzIqlpaVQYGhFLloBjFb02rhxo1imuNjAdGRQ0DutJkbB+7Q0MSlCFKz/888/66hV9ofOnTsnxk7jIqVFeezKveu75q9deyzirTS9u0XRDt8XFe++UJwb/mYCTIAJMAEmUJUIsOKidjbJikIKA62M1bp1cdcYClQnX/23394NV9c1YjnihIRnKzWpNaeyS8rDuHFecHGxhp/fFnTuHAJaPlXT+1LIutK9u6uwblAQvHIsCzVKMScbN76O2NiH8PL6Rcgya1a4WAhA3RJEStCkSd745psIuLmtxezZJ0BxC4YmWmWNFBZN8lBbFGNz+fJDtGu3CUOG7ETHji7C7U5hKZIjMy0+EBLSD6NGNdNr0VHIT0sU0ztNNm3aJC0NTArKkiVLhDsZxXeMHDlSLGM8c+ZMyQLz1ltv4Y033sDw4cPRuXNnYZH473//q2hW1jcpTmPGjMFHH32ETz/9VChFhw4dwrvvviurflkVIre5y5cvizgfWkyAXOlmzJghjV25X13XPFnXWrasVezdLcr1aZvvi4p3X6ifI95nAkyACTABJlDZCZgUksO1lpSeXrSqlZbDOrNppScKBuZUdQhcvPhAKGpLlnQrptTR+yooTmft2le1uhRVHRIVeyRk/SElbu3atXB0LG4Zkys9rR43adJB4do4bJhxFwuQK0NlKMf3RWU4SywjE2ACTIAJVBYCtrZFMd2a5OUYF01UOE8iQGotuZVlZOSA3k9DLyD09HSQjvNG1SWgeHcLWc44qRLg+0KVB+8xASbABJgAE3geBNhV7HlQrsR9kMIyYcIBtG37P7HS2qeftpXtwlWJh82iA6B3Du3ePRANG9oxDzUCfF+oAeFdJsAEmAATYALPgQC7ij0HyNwFE2ACTIAJMAEmwASYABNgAvoJ6HIVY4uLfn5cggkwASbABJgAE2ACTIAJMIFyJsCKSzmfAO6eCTABJsAEmAATYAJMgAkwAf0EWHHRz4hLMAEmwASYABNgAkyACTABJlDOBFhxKecTwN0zASbABJgAE2ACTIAJMAEmoJ8AKy76GXEJJsAEmAATYAJMgAkwASbABMqZACsu5XwCStJ9VlYeAgMPw85upfj4+YWA3rlR1ik/vxBLl0aiZctfcPLk3bLujtuvYATofT7Tph1DUFAUtL+2tvyE5vui/Nhzz0yACTABJsAEngcBVlwMpLxwYQToU9pUmnasrMxBb69PS5uIffsGaRSFFAuFYqPpu6RjsLAwQ61aljA1NdHYr77MzMxcrFlzEf7+W4V89L127SXQpLMsUmk4K+SJjo7GyJEjYWdnh5YtW2LBggXIzMxUHBbfymX8/f3x66+/Ii9PdUz6yuTn5+P8+fNYsmQJfH19sXDhQpU+DNnR15chbSnKJiam4+zZZHTuXA8maqffGJypn9K0w/eF4kzp/y4NZ/2tcwkmwASYABNgAmVDgBUXDVwLCgpx8OBNrFgRpXKULA7Z2aqTUZUCMneM1Y6u7jp1qisUG1Juzp4dgVatnLBmzatS3vTp7XRV13jMzMwEEya0xpEjb6FDB8Pfpk5Ky6xZJ7Bz53V8/30XpKZOwE8/vYrExDTcv5+lsc/SZOrjfPp0EpYtOw+SS1u6desWPvvsM/Tt2xcPHz7EX3/9hfj4eGzcuFGqkpCQgClTpqB3795ITk7GrFmzMH/+fGzfvt2gMlTY1NQUrVu3RqNGjaS6hm7IkUe9TW3XvHK5EyfuwsPDAR4e9srZ0MdZpbCOHWO1o6ML8H0BvedLzn2hizEfYwJMgAkwASZQVgRYcVEjm5GRi3nzTmPu3NPS5FzhguLgsArff38O8+eflqwZym5a5D5z+PBtDBgQJo7T2+Z/+CFasibIbYcm0qGh8Rg2bDcaNlwrXLPmzj2F1NSnatKWflch05YtcTh27A5GjNiDevV+Qs+eWyX3s5CQOGm8CuuNuqsYlQkIOIDg4MvCmkJtjB69FwkJjyUh//zzJo4cuY15816Bj48zSBFq0qQmvvzSFw0a2Ipy+hhSoby8AoSFXVPh/Pnnx3HlSqpwYVKMSd/5aty4pqgzZsx+xMWlSnIqb5Di8vjxY3To0AHm5uaoU6cOXn/9dVy+fBlZWVkoLCzEnj170KRJEwwePBhWVlbo3r073n//fYSFhSEtLU1WGerTzMxMKC1kbXF2dlYWQ/a2HHnUG9N0zauXSUvLwZ9/JsLXty6srauJw3I56zunctvh+0L7bwudkOd5X6hfH7zPBJgAE2ACTOB5EGDF5R/KNLmKjEzB0KE7RU5Y2AC0b19HbCtcUJKTAzB2bEt88UUHyXJx/PgwNG1a9AR69+7rGDt2H955xxMPHnyI4ODeCAmJF4oQxQfIbScmJhWHD9/CnDmdcO3aWJAs0dH3sXJllHhaWhYXxurVF7Bo0TlMndoWN2+Ow44dA4RSQX0NG+YhjVdhvdEkw+bNV3D9ehp++60/oqNHoWbN6vjqq5N49OgpsrPzxZj8/OpJ7WpqQx9DqkMK1owZxxEY6INHjybg0KGh8PJyEkoIHZfL2cnJCsuXd8eIEZ4YPXofNm6MBZ0n5eTu7g4nJyccP35cuH6R+1dsbCxatGghlJTs7GxcuXIFnp6esLGxEVVNTEzQsWNHXL9+HUlJSZBTRrnP0mwb0peua15dBoqhIqtYt271pUNyOes7p3Lb4ftC+28LnZTneV9IFwFvMAEmwASYABN4jgRYcQGERSQo6Dw++eQoZszogFmzOsLGpuipstxzQU+td+y4hiFDmmLw4JdQrZopvLxqick1TdwMCZ5v29YZQUE90KKFo2SV6NPHXUzMnzzR7tYkV1ZN5WgSu2CBn2QJofEbGsfSs6cbPv64Deztq4OUAlIIaDJFYycXO4qRqFu3hlAsNMkgl2FmZh5yc/NBCgJ9bG0tRF8DBjQuFnuhqR/lPBrjwIFNEBraD0eP3saECX/h1q0MqYiLiwu++uorbN68Gf3798fUqVOFFWXUqFGiDFldyCrToEEDnDx5Ej4+PiK+xd7eHgUFBcK9TE4ZqcNSbsjti6wccq95ujYOHEiEt3dt1K1bpJzJFVPuOZXTHt8Xun9bnud9Ied8cRkmwASYABNgAsYmwIoLgLt3nwjXoylTfNClS/HAYznQU1IyERv7EO3aOaN6dTOpSvPmjsK1htyYDEn37mVh/frLwnXL13cLVq2KRnp6rnAHMaQduWV79XIT8Qtyy8spV6uWFVxcauD69WfuYrrqyWXYs2cDfPppO3zwwZ8YOXKPcKsjXqVJrq42mDatnbAqnDqVJDV18+ZNLFq0SATnU+wKBeUfPXoU4eHhwgVMKljJNgy55pOTMxEefhe9ezeEhYVhPxlyz6lcfHxfaP9teZ73hdzzxeWYABNgAkyACRiTgGGzEGP2XIHaoliHFSt64JdfYjF16tEyCRQ3ZLhkpRg48HeYm5sIy0t4+NvChcuQNgwtS5YH9ZWiDG1DvTzFW1DQt42NBSwtzeHmZiusGfS0vzSJFMOAAC9ERY0SFp6IiGT4+W3BN99ESPFEhrRP7mHkJjZq1B/CFXDQoCai+tOnT7F8+XK0b98eZGHx8/PDDz/8gE8//VSs+JWYmCjcxVxdXXHv3j106tQJkZGRGDp0KB49eiQC7R0dHWWVMUReXWUpxkafPFTfkGv+3LkUYX2jBR7KM/F9oZv+87ovdEvBR5kAE2ACTIAJlB0BVlz+YUurJQUHvyYmdEOH7hKritGkWzmRWxIFlFM+uc8oJ2dnazRr5oiIiBSVOImYmIdi1SpPTwepuK52KBZk27ar6N+/EUaNag5HR0ujKxSSIGW8ERubKlzESGGxtDRDt26u4v0vygH7yiIYwpDqUWwErRK1cGFnrFjhjyVLInHx4gOpSV2cFYXIfY3cw8hNjNzFyG1M4SL35MkTsYJYrVq1hEsa1aE227RpIywvd+/ehaWlpYhvuXjxorREMilsUVFRcHNzE0H2csoo5JH7TX3//PPPQj7lOob0JeeaJ6Xu0KFb8PdvIK5F5b4U27o4G3JOdbXD94W83xY6J2V9XyjOO38zASbABJgAE3jeBFhxUSJO//AnTvTG4sVdsWBBhHjfiNJhMfkmP//9+xNx6dIDocBQPMSDB9kiJubNNxtj//6/sWvXdeTmFoAm7uvWXULfvo2kAH5qjybx2tqh2BhSVigY//btDGFB2LPnBpYuPa8sirRN7likTNFTcVpViCbi6gHmUuEy3jh3LlmMnSwqmsb+6qsN0LVrfcycGS4WQqDlb0mJIUvH9u0JshhSneXL/397dwIbZZkGcPwpR4VCi1ClhR2KirLFckgQKhahoGy8IFRZMKRZiIFGSENBA4RYAkk1RBMFKoeyQOxKQmjjAbLFciw3VZCjuhx2aUHOFlS05awgm+cl3zhT5qTT6bT9f0kzw3e8x+/rkHn6vO/7HTRlnDhRYe6B1ldUdMFM0I+JibD30pOznqTGKSlfmi/l2dnJosPFHLc2bdqYFcJWr15tJuRrQKJzSNasWWMm7OvEff2yPXToUCkuLjZzW/R4YWGh5OTkSEpKiuhcF1/OcazX2/uqqirJzs6W9PR0ycrKMnNurGv8rcvb73xp6W8m2HT17BarTk/OOleKz0XD+lxY951XBBBAAAEEgi1A4FJNXIdL6VK9ujJWz553Do3Rifc6H2T06Hyx2ZbJ5MlbpaTk9lPrNUCZPz9ZPv74sERHf2jmXzz7bGfJzOznNO9Fq3RXjgYh48d3l9jYCDP8acCAXNGsjbvnruiQn/T0XmaYVFzccpk9u1B0TkJdbDZbpBw+rPN8VsnLL6+TxMRYmTmzr73vuoxuVlZ/k03ShRB0ueIJEzbJ4MGdzPwJbbM3Q/UZN+5RMx/n9de3m3ug9WkQowGnZnccN3fOek5UVLjk5r4gqanx9jY6XqvLE6elpcmwYcNk0qRJooFMfHy86BAxHUKmE/d10xXF5s2bJwUFBWa55MzMTMnIyJARI0bYi/PlnNzcXPOQS11yecWKFeZZMPrQSx2ips+Osbbw8HCzPLPWr8s0t2rVyjpkXn2py/ECT7/ze/eWS0JC9B3PbnG8Xt97cvZ2Tx3LclcOnwvP/7cE83PheL94jwACCCCAQDAFwm7pn5HdbJWVlW6OeN+ty8BaX+y8n80Z9V1An+OyalWxLF/+jNshRfW9j42t/frslvT0LSbQ1CWx2fwX4HPhvxlXIIAAAgg0boHISOc/QjtqkHFx1OA9AgjYBaxnt2jmjA0BBBBAAAEEEKhrgWZ13QDqRwCB0BTQ56bk5/853C00W0mrEEAAAQQQQKCxCDBUrLHcafqJAAIIIIAAAggggECICzBULMRvEM1DAAEEEEAAAQQQQAABzwLMcfHsw1EEEEAAAQQQQAABBBAIAQEClxC4CTQBAQQQQAABBBBAAAEEPAsQuHj24SgCCCCAAAIIIIAAAgiEgACBSwjcBJqAAAIIIIAAAggggAACngUaVOBy/fpNmT59pyxcWCTuH6vpGaSuj169ekOmTNkmUVGLzU9SUq7o8zTqy3bz5i1ZsOCAJCR8Il9/fc7e7PreL3tHeIMAAggggAACCCBQJwINKnA5ebJS9u0rlwEDOkpYmLPnO+98K/oT6lvLls1k/vxBUlExSTZsSHHZ3OpBQOfOy2Xs2ALZvv2M/PHHLZfXeNsZSJ/w8KYSHd1CmjT58yb40i9vbeQ4AggggAACCCCAQOMVqDeBi34h37LllCxaVOT2bhUWnpOuXdtK1673Op2jWYBr12447WsI/3j11QQpL0+TI0f+Ic8//6BkZGyVxYu/E+2vP1sgfZo2DZOJE3vK9u1/l379/H/i+p49ZZKdfVCuXPndny5wLgIIIIAAAggggEADF6gXgculS7/LW2/tkaysPW6/DFdUVMmmTSelf/8OEhHR3Nw2KzPRtu0See+9/fL223tcDsGyzlu9ulh27jwrY8asl44d/ylPP/2pfZiWfpHOy/ufjBqVL5rh0KFQWVnfyMWL101dP/5YIUOGfCpr15Y6/cocOfKLDByYJ/v2nbfvP336kkyevNVezty5e2v0RV37O2pUV8nI6C05OYeluPiiT3VZ/fbm463vWllubrHd1hrm5jhUzN4gL28eeqiN/PDDRRk3bqNTP7xcxmEEEEAAAQQQQACBBi4Q0oGLzlM5cOC8jBy5ztyGtWuHS9++MS5vic4D+emnqzJo0F/sx63hSZqV0OzEm2/2M0OwdBjWrl2j5JFHnDMzS5d+L++/v1+mTesjp06NlzVrhkuXLm1MeUeOXJRt207LnDlPSGnpq6Jt+e67n2Tx4iKT4bDZIk3dGvjoXBtr0yzQAw9E2es6f/6KTJu2Q9q1ayFFRalSUJBiylmy5Hu/MyVWHfqqQ+OSkjqKDtM6fPgXc8hbXb76eOu7VqaBk7rqz759Y6RHj/scm+fz+/vuaykffJAsY8b8VcaO3SArVx518vS5IE5EAAEEEEAAAQQQaFACIRu4aDZg4cKD8sYbO2TmzH4ya1aitG59O5NS/Q5ogLN580np1et+6dChdfXDPv9by5k7N0l6924vOuRJ67PmafTp014WLhwsjz7INVLyAAAF7klEQVTazhzTgOa55x4w2YHLl383+wYNspkJ6TrXRrdff70umzefkmeeiZOoqHCzT7M2lZVVkpbWQ+699x6x2VpLWlp3+eqrE3L27CWf2+rqRJ1X0r59hBw7dnsyf6Dq8tZ3V22pyT41HzGii+TlvSA7dpyRiRP/I5qlYkMAAQQQQAABBBBovALNQrXr585dNsOupk7tLU89dedke8d2l5dfkd27z8mUKb0lPPzuY7GhQ+PMHBnHsh3fX7hwVdatOy4bN/4ox49XyI0bf4hmWvRVt8ceu186dYoUzbJoNqek5DcpK7tshq/pcQ3Gjh69aLJGMTER9qK1DM3SlJVdMdfbD9zlm2bNmgS8Lm99v8umerxMg7rp0x+XqVO3yTfflInN9rDH8zmIAAIIIIAAAggg0HAFQjZw0bkOixYNlszMQtm69bTMnNlXdBiRq23//vMmM3K3w5OsMvUv/dVXI7OO6RCwGTN2ymuv9TCZl7ZtW0heXrGsWlVsnWIyKE8+2cHMk0lJ6WKyQH36xEhcXKQ5RwMXzRzs3n1WDhy4YL9O3+jQsebN7z7o0jJ+/vma6PAwHZoWyLp86btTZwLwDw3kNGOkizHMmPG4DB/+UABKpQgEEEAAAQQQQACB+ioQsoGLguoKYTk5f5MVKw7JyJH/ltmzE0WHY1nDt/Qc/YKrgc2QIZ3Ml39XNyIsLMwM5dKVyXQ4mLvgxNW1uu/atZvy+efH5MUXH5TU1G4er9d2fPFFickQ7Np11mSB7rmnqSla55R07hxpsjFZWf3F2u+uXn/2a7+0vqqqm2Y4mz91efLxp+/+tNfTuTrUbs6cr00gp8PFNPPChgACCCCAAAIIINC4BWr2J/4g2OkX8EmTesm8eQNl7txvZdmy/zrVWlr6m5lX4urZLdaJLVo0NfNfNm48KYcO/WyedaKZD81Q+LJpJkQzIjoZ/8yZSyabsX79CVmw4OAdl2umSOfI6EphGhB06xZtP0f78sorXc1Qs48++t7MddFgSoeU5eefuGNyfnR0SxNwaUZJh6PpF3rHif9Wwbrql67qpQ9+nDChu8THtxN/6vLk40/frfZ4e/XULzVOSfnSBKLZ2ckELd4wOY4AAggggAACCDQSgZAPXPQ+aIZEg4HPPntRevZ0Xq1q795ySUiIvuPZLdXv30svPSw6h2X06Hyx2ZaZ5YhLSnx7Ir1O1B8/vrvExkZIUtJqGTAgV3SZYx3CVH3TLEpysk20XTop33Eui577xBMdZOXKZ+Xo0V+ke/dPTFtmzdptFgKongnSICg9vZe8++63Ehe3XGbPLhSdz2NtmomKiVkq3br9S/Lzj8uCBcmmnVY5/tTlzsefvlvt8vbqqV+6iEFu7guSmhof0IyUtzZxHAEEEEAAAQQQQCC0BcJu3dJBRq63ysrbq2O5Pup5b1lZmcTG+v8AQs+lOh/VZ7ekp28xQ7h0OV42BBBAAAEEEEAAAQQQqL8CkZG354a76kG9yLi4arjus57dkphYuwGSu/rZjwACCCCAAAIIIIAAAsERqNcZl+AQUQsCCCCAAAIIIIAAAggEQ6DBZlyCgUcdCCCAAAIIIIAAAgggUPcC9XqoWN3z0QIEEEAAAQQQQAABBBAIhgCBSzCUqQMBBBBAAAEEEEAAAQRqJEDgUiM+LkYAAQQQQAABBBBAAIFgCBC4BEOZOhBAAAEEEEAAAQQQQKBGAgQuNeLjYgQQQAABBBBAAAEEEAiGAIFLMJSpAwEEEEAAAQQQQAABBGok4PE5LjUqmYsRQAABBBBAAAEEEEAAgQAJkHEJECTFIIAAAggggAACCCCAQO0JELjUni0lI4AAAggggAACCCCAQIAECFwCBEkxCCCAAAIIIIAAAgggUHsCBC61Z0vJCCCAAAIIIIAAAgggECABApcAQVIMAggggAACCCCAAAII1J4AgUvt2VIyAggggAACCCCAAAIIBEiAwCVAkBSDAAIIIIAAAggggAACtSdA4FJ7tpSMAAIIIIAAAggggAACARL4PxEin9Z7vHUKAAAAAElFTkSuQmCC;" vertex="1" parent="1">
          <mxGeometry x="510" y="22" width="600" height="138" as="geometry"/>
        </mxCell>
        <mxCell id="Y3ty23P_71YVdsBofIcM-27" value="" style="shape=image;verticalLabelPosition=bottom;labelBackgroundColor=#ffffff;verticalAlign=top;aspect=fixed;imageAspect=0;image=data:image/png,iVBORw0KGgoAAAANSUhEUgAAAaMAAACACAYAAACm2gbYAAAYM0lEQVR4Ae2dP3KrPBfGH3/zLsW+xZ2sAFZgp0mVNh0u7eZ2KdOlwWXcpXWVJrACs4JMisBe+EYCGQHijx0w2H48kwmWDkdHP0kcIw7SJI7jGPyQAAmQAAmQwIAE/jdg2SyaBEiABEiABCQBOiN2BBIgARIggcEJ0BkN3gQ0gARIgARIgM6IfYAESIAESGBwAnRGgzcBDSABEiABEqAzYh8gARIgARIYnACd0eBNQANIgARIgATojNgHSIAESIAEBidAZzR4E9AAEiABEiABOiP2ARIgARIggcEJ0BkN3gQ0gARIgARIgM6IfeBMBCJs7Akmk+xv6dcUHW1ga7L2JjIKR/4GS9vW9Nqwlxv4ZnGjDpXoLzPbdDvlsW1jufFRp/YYW0pl2Zta3W3lo8gv8JhgYqdMUG6DSaHcaKOznGBS20iKHP+TQAcExEKp/JDAuQh4DsTCvMmf41UWG7rWQa5KzHMSGcv14jDVFHpubEn9Vlx1XmWhcRyrci1XaRSJXuxaqc2WeyhL13OKLaostDS0SV7lW07GIw4zHkmVwvjQBhV1OejRGeiV5TEJ9EAAPeikShKoJCAvdJaVOgwnNrsjL3aA2LISZ2O6VtdeMA8X4Cr9leaZnZEUT2wSjrRoz6m21J5nMLFW3nOqHbzMs+LMt6i66GmqwDBxvMVKqmz+J4GeCHCaroO7S6o4lsAjnl0LwBYfpqk6/wNbOHh8rNLr43UdAHDwvJqWhaYrPDsieYuXium98klNKXM8SJ3A148+WTeELUVbI2xetgAsuP/mxUxg/oDU9DRvjn+Sf4D1a6EB/FesAwfem0FPWTNTSKAzAnRGnaGkomMIzO4fId1RyRslF1bL/Yf7KoXSWYlr71/MKmRmf4V2INh91j6LqTjdmHzQ+R1m+QPZkhkAQDoQweMR9wbfDMzxFu+h++3p6h3J74EXZP46Y09XlCPML2cgQGd0BsgswkBgeo/HxBsh99s8+sQusPBovqpKRdHPV6Lw7g+M114A0z93iUzwDc11GAxpnxR+i7sx4QMzFziULbrVbWzQ5ZPjKVby9jHA+ikJnog2T1jDxbvutconMoUEeiFAZ9QLViptJjDFfeKNclNp0ecOgfOc+xVf1GVyCkUZzP7KO69S+skJPj7ETBjyjnIYW/KVaGVD/pTk2/xfcncUrPG62eBpDbjvq0oHb1LBNBLoigCdUVckqedoAtN0qi6bSkuevzgPXU4SfSH3iOdoKwHIcOkF5FMZ973WUdar78CW+gKOzJ1i9e4m06XrdeOPgCOVU5wEjiJAZ3QULgp3SkAFGgQ7fIqYgDRwoVNfhDv8qZrLq6lMsJ5l7y7NFviCA9cLsf/VFNZpttSY+fssNV1aFfzw+xKogQRaEfivlRSFSKAnAnMRorbdYvfp48/3FpYboum+KAkkCBDIQIITPE2Lugg72jiec9jSwlwp0iePtjZQjgROJcA7o1PJ8bxuCKRhx8F6gcU2/zymqoBDcMLXT3WkXPgNGW7gPDQ6t6py2qSPwRYV5Yc6Hm0qQxkSGJAAndGA8Fm0IJC9v1MdmlwgpYIT1PReIVt89ZNoA3T7/MlQUG+2+FhObC3s2lB2mqSevaEycrC9rupSmEMC/RKgM+qXL7W3ICCn6sQrrM8tI7nUsyYYXtoU5UUbJO+AujC9A9rCpPYifdmi3l9qY8nBBvNLvtHmRQZftFFFGRIYigCd0VDkb7RcGYZc/AU/fxPLUqH40r8KWTahmr+F6UubC9j6AqYi8m22RmA58PYtnZuhgOT5iyHDkNS5LZGfrqhgDngw2TZ/8+QqCyLwYqmtEisWb32Sq1UYDJdJIZLXpwLsZBRJlRzTSaBnAj0tM0S1JFAgkK55phZJhWldNHVKURZxbuFSJRaHsec6saUWMRW6LSt2tIVTD6ItDg4LiB5sPGZtu+NsKZelLSBrKL8kb1zkVCyCqtb9y/SJNf4cx7DAq1rP7lAe4raLtrbASRESOIrAREj37O+ongRIgARIgARqCXCarhYPM6+DgHiAX7NXUctAgetgwVqQwDgJ8M5onO1Cq0iABEjgpgjwzuimmpuVJQESIIFxEqAzGme70CoSIAESuCkClcsBTSaTmwLBypIACZAACfRLoC5ertIZCZPqTuzXZGongcshIH64caxcTnvR0mEINN3gcJpumHZhqSRAAiRAAhoBOiMNBg9JgARIgASGIUBnNAx3lkoCJEACJKARoDPSYPCQBEiABEhgGAJ0Rk3c/WW246e9qd4/p0nP2fP1VQfabUVwdhNZ4HUSuNgxc53NcSm1unhn5C9rlnmxbSz1FZ1PaRWxonTowjKeG2Fji/KX8I353SWW6tnoGOd4i9OVrbszg5oulsD5+ipqx0wGMBIrrNt29mNPLNlk27CXm97HU2YFj8ZC4OKd0fwtRugmrkJsFS1CbOVf6MFFgO16gVnjhbuhOaZ/cNcg0ne2Xk84HuJW2yNM8Wdow/sGQ/3jJNAwZqKNjdlsga+7Z4SHMevCCgIE2x1+onFWi1b1R+DinVElmukcq32yxwuCNV57uXWZYrUXzu+t162ti3W0/s6KSfxOAg0EhumrRqP8JWZijyXHw/5tjqkSmq6w9xz1bbT/5SzFb3/gjrZ2wxl2vc5IMs22tP7iT63hehlLJoEDgSjdONCCa9qGd/4gNwk8iI/uIMLP1+iMugqDrtwZAbO/yRSeaXfMq2hBVoIELomA/wq58az1iPvDLZFeAfGsc4+VMU+XG+g4+sQuGKjsKy+2G2cUbWAf9otJHuZHm2WWZi+xSeeAI38JWz70Fw/+bSyN02cRfHH+QS55sKlvp9y2XdTW1eWprV+WYahz0aZ8XZP62vL2Xj1M1oIvDiCKeW0j4Uz1WeKDv+KKzTKO75G5vXLDwdDHZJ9SY030pRNlgGI/m2DSpg+2sbuGcKRuK+7+ZNNzNfJJlomVuHYUHizpLHLTaBWRpbp8GoRUdd0SdvhLGxOxpb34EqwxU+0wmWC5MVwDxbVOydhLLPXrmUhvw7uRzRUJVO0LmyxNV5VrSldbRVux2ObY9cJEKHRjS25r7MSOY8WOlu6k6V5Bndpi+SArtpd2km2UTdtPh64ldqs1bE3txUkZ5S2ulb52ZaR6Sls9qzqXt6cu6Q+VLZmskinXyay3up7xgU9WnzgOD9tKl+tfQM6vvyBw7FhR7Si2+E5GSda/y9t+Z33BcRw5fkIvHVOH/nicjD7ejumDx9ltHjPV5VU3gDon69sZr9LYUdebAxulVzEqjoUsveq6pfOKY3O9klKULnGtM7eVqkvJ7jg7N1+esv/y/zeNExF5Zvw0nVg+ScFE7ORoZunFBlANk5NPL6BF2UMnQLEzxbEaJLlzxMXfqnBgR5dR1QFV3TIHI7koJ5CrmLJTk62QU3XN1SdW5xucbqUeZV+ZWbn9mHIqgWPHStJftX4gCm68iObHlRw7hwuuauc2MoVyK/tO0uf1Pnic3eYxo8a8rreWe2pfWT7VX7oemMuNDxf74lgwsxM2JbYW5av0y0aM3fSaow/9XFsdwbuWywVmNo2TbqbpcneKDh7meoIKL7bwWJgkVs9zdGn/Yyu/3v0pThqrYIQAu8/C7XmqIFjPsncWRNgoHLheiH1hAvo3Zei2Vh0r/U4eBKarfT7ybv4PMip9+5F/r8L/wBYOngt2H1seoNhXncn0IQiU+oEwoiEUGsiPKxHqXw7vbyNTqPERffA0uwvlHflVjaVTrgfHFZVnl50b4DvMvrU7yuvKtdURvNuVdT1SPTij38BRkSoWTNHLJuell5Z7zyiOsd+/YTUvOrXflaGXZz6u158/Z4r7RxFgscWLeqgm5vJftrDcfy3DxY8pL186v5GA+MHy+z54PMd2AUX1fbvpenC8Vfkz+tE/DO98zcb5bWTOaJyQ+rRqunqWoazB7jNZakhGG7W/K+rTNurukUDkYyODdOz0IfcCyZxAj2VWqJ7eP8oVRlr1wV/afbjAf/1c0NJaFeBOTOaYN4MbqTMy3xqryLjyLbu5cvWp5yij3oIkN51+DHYQs49yWsJ5aHlX1EY/ZcZGQKw+MJktsMMD3t/32MsVCNIXtIcwdrrCs3jXVOuDpjvzLuxWjg/BN8yzXyLyrRhBOpax2lXjcMybSI7MGalbWGD7kQtyhQhFTaJC8/OxpkrVp/VdhtJf/WyraN/8QV4JsH6y8bKteBmweNLhe115itlBmAdDE4g2eFKrD6zmmBZnkQeyT/XB3esSL1vDnXlXdivHl5uaziodbV60O0TVt0+4HpScXYjvLt8PKunP6tDmSPE+bcy3KeECZaqCMpoiH8rnVUW3NEWrFKPDdPk0PFyGdleFb2dRZuWw2LKVScqxZai6FSKRVJhnVUSPSFeh7CJgSoTkHiKgdNsye+rqoKIGyzLKPi3yJ/Ri13FiyxDdo5fM498TOG6sqLZy4kPXkJGf4pUIEf3Zto/pdiudWvvr2fK4SUblIy73L6FA5R9rd7E+ui4R/afGeDo+5Oseej2ysZHJitDu6utBKWIvNxZ03botxXQVTZePUJRnpK+ZKHvEKxSOK+qhGJV1ifPyn6xeZt556Wv41jROOgrtVo2QhFKLQpPQRg247GSZ41EdRsiKv3zoZtLZkveT0nzLyV3YVeMU9ZQHs5Is/m9Zhgq5Te3EwfEU61zogHIAJAMmqaMVW4f3Soq2KIda0KGJlepZdGqhewhllzwdV17s9PPyjDXlPPwVAcH7qI/8UaLGiuoX+lhR/aDYx9S40ks7RUbp1/U098G4rd2VY0Yvrzz+ZL+1rNhx3PT9KyVflrUqrgfJGdlrHclYSN7n0sdCcn0qssu46LJSh3Q2yh5dv1VwRKpdTW2lzk/+Jz8uszLzudf3rWmcTESVTTd0k8lErn5tymNa9wTkKsbfz4jfcnHx3RdEjZ0T4FjpHOlNKLy1Md80TuiMRtHtxUPbBeDFoC8aRYMcZUTTIDtKGYVvhMDtjfmmcTKyAIYb6YdynasJ7PTdIvnQ1nJhWsT4doiwpiRw3QTE1hMc89Vt/F91FnP6JhDsXuXKCy9rwA1XRywc2bdl1E8CJNAHAY75aqq8M6pm039OsMVi/YU7b8RL5vdPgSWQwO0Q4JivbGs+M6pEwwwSaEegaS68nRZKkcB1E2gaJ7XTdOJkfkiABJoJcKw0M6IECdQRqHVGFVHfdfqYRwI3R6DpF9/NAWGFScBAoOkHG58ZGaAxiQRIgARI4LwE6IzOy5ulkQAJkAAJGAjQGRmgMIkESIAESOC8BOiMzsubpZEACZAACRgI0BkZoDCJBK6OgL+EeIC8LO7McnUVZYUulUB/zkjsCGlny180AupbvtEACpDAcATEUjH1zkKsZZbICDnxp5aWSawu5zc7nkiOUaVP/tdOUjbl8pUNto3lxr/Z3VqH6ylXXHLVQuVNy31XnSfSQ9eJ1fYPbbYt6Fu+zlbmkcBvCfxmrMiy9S0Xkr0NKkzKtjwwi6ltKAzbEniO3KrFdJ7aLsE0VtUeWrk8sT1Kuk8WiluZVFjOZBJoGifd3hlFPpb2BE874M5KPHjtFuF9y1/xjwhW7XoIRJ87BI4Dsd8vvn5q7jZm+CvHlYW/M1P9p/hzJ9Lv8OeEHWRrx6pe3HSO1T7dJj1Y45VTfzodHp9IoENnFGHz9IG/zyH2+zf8e0y9UaVhfctXFswMEhgRgQifuwDOwz8ku8/v8BmNyLxKU+aJvdJ/XoTBlTVhxjgI1K7AcJyJU6z2b0ec0rf8EaZQlASGIhB9Yhc4eJ5PMfsRP+AC7D4jrFYn3NqcuQ4zeZsWIPgOAa45f2b611dch3dG1weHNSKBvgn4r2sEzgPE/r7T+0dId7T7rJmq69ui9vrD70AKW+Y5w/aKKEkCAOiM2A1IYDACPj62gPOQbjU/vYec3Q4uYaousR2w8Hg//ru4wZqYBbcmQGfUGhUFSaBjAv4HtnCgfJGY6rpPvBHkzFfHxXWmTgYeLbAFYLnvuIAZxc6qTkX9EaAz6o8tNZNALQE/uS2SU3RKcJqEw2H7Ma4QtWA9k+82yXeOZgt8wYHrhdjTE6mm4/9fEugwgOGXlvB0ErgpAmqaa4GJuMUofrYf8N/mOUdVFDnnd8ul4zkn71ssi3dGt9jqrPPgBKLNi5yi8+IYYt8w/c+TLxxtMbKbo8GZ0YDrJkBndN3ty9qNkkDybhHSKLqiiUnINAxTdeql1qDimVKEn6+iNn4ngcsgQGd0Ge1EK6+JgHy3SIuiK9RNhXhDTNUV8pSj+voxvGia6q1ycgVV/EoCoyLQkzOKoN5BEA9iDcOmAKFv+UJx/EoCgxGIIN8talV+eapuunqHawEioGDpayNLLDT8tEYAB95bGireqox2QsmLre1kKUUCJxGoWr6vaVE703lywVPLkgsyivP1P8uy4uIijX3Lm2xkGgl0TaD9WMkWOj2MjcKgUAuTHvKBOLdIqTQ+jD3HOixGnMhaseV4cVhVuRYLpRZMidUCqpktTuxV6Wc6CTQQEP2o7jMRmSYvJkI4K7JM4kwjgZslcBFjRexntNjC8WIUb5zEVhEL8fKtIe9mG5UV75xA0zjpaZqu83pQIQmQQC8EVNCD/vJtLwVRKQnUEqAzqsXDTBK4ZgIR/OUT1oG4K3obzTtN10ycdasmwJdeq9kwhwSumkC0ecLL1x28cI85l5e76ra+hMrRGV1CK9FGEuiBwHS1x37Vg2KqJIETCNQGMJygj6eQAAmQAAmQgJFAXVBc7Z1R3YnGkphIAjdIoClK6AaRsMokUCIgxkndhwEMdXSYRwIkQAIkcBYCdEZnwcxCSIAESIAE6gjQGdXRYR4JkAAJkMBZCNAZnQUzCyEBEiABEqgjQGdUR4d5JEACJEACZyHQrTOKIvibJWx7km1RPLFhLytW7u5b/iwIWQgJHEMgwiY3PiaYLLONIsQ6cSLqyPhn21huKsbSMSZQlgTGSKBqFdWmFVZL56WrAgNO7B2WDharC6erd1tufkXhvuVLBjKBBPohcPRYiePDuCivyB3HauXuXF7oxa5VMZb6qRa1kkCnBJrGSbd3RrDghm/a0iJTzN88yF2Ugx0+te1XEsfct/wY3T9tIoGMwN2fluvwTOdY7dVYWuM1u5nKlPGIBC6YQO1Lr0fVa/4G82YUM/y1AAQFbX3LF4rjVxK4fAJzPDjAdgvInV65oNzlNylrcCDQ8Z3RQa92EOK76Ii03PJh3/LlEplCApdCQG07zp1XL6XFaGdbAv07I/8DW2GN84xVmxmJvuXbkqEcCYyQQJj+srP+zkZoHU0igdMJ9OyMImxehCty4BW3lzTa3Le8sVAmksCFEPDxIX/ZWXi8b/PL7kKqRTNJAECvzshfzrAO0iCFFrj7lm9hAkVIYJwEIh9LeyFnGSz3vd0swzhrQqtIwEigN2cUbWwstsIR7VsNnL7ljbVnIgmMmECwnmXvG80W+IID1wuxbzXfPeKK0TQSMBDoLppOUy4cy2wttjJu74j6lNdM4yEJXAwBy6XjuZjGoqG/JtC9M/KXmK0DOF6MVo+J+pb/NSIqIAESIAES6JtAx9N0PpaLLcQvulaOCH3L942P+kmABEiABLog0Kkz8pcLbC0X76U57WQ9Lm0JLml73/JdAKIOEiABEiCB/gl0N03nL7GQYadrzCZro+VyWSCV07e8Kof/SeBCCSQvtjKE+0Kbj2YfSaCzOyM/eQGidfF9y7c2hIIkMCICYtVu8cxVfrYLTCZLcBm6ETUQTemNwEQsy2rSLpawr8gyiTONBG6WwCljRTgdMZPQOtDnZumy4tdCoGmcdHZndC3AWA8S6J9AhJ8vUYqDh3n/pbEEErgEAnRGl9BKtPGKCETwl08QM3GO9wb6oitqWlblVwS6C2D4lRk8mQRug0C0ecLL1x28cK/t+3UbdWctSaCOAJ8Z1dFhHgm0INA0F95CBUVI4OoJNI2T2jsjcTI/JEACzQQ4VpoZUYIE6ghUOiNG0tVhYx4JkAAJkECXBBjA0CVN6iIBEiABEjiJAJ3RSdh4EgmQAAmQQJcE6Iy6pEldJEACJEACJxGgMzoJG08iARIgARLokgCdUZc0qYsESIAESOAkAnRGJ2HjSSRAAiRAAl0SoDPqkiZ1kQAJkAAJnESAzugkbDyJBEiABEigSwJ0Rl3SpC4SIAESIIGTCNAZnYSNJ5EACZAACXRJgM6oS5rURQIkQAIkcBIBOqOTsPEkEiABEiCBLgn8H7VJ9PrYvBTWAAAAAElFTkSuQmCC;" vertex="1" parent="1">
          <mxGeometry x="521" y="432" width="289" height="88" as="geometry"/>
        </mxCell>
        <mxCell id="Y3ty23P_71YVdsBofIcM-28" value="" style="shape=image;verticalLabelPosition=bottom;labelBackgroundColor=#ffffff;verticalAlign=top;aspect=fixed;imageAspect=0;image=data:image/png,iVBORw0KGgoAAAANSUhEUgAAAngAAAGBCAYAAAD14sx2AAAgAElEQVR4Ae29z4sj25Xv+9Vr/w89NMZSmVfk5MAZ9AkZczH3PqysQdeo7DswNXickHnv0pLpTi402R64k4ZL9cOSeffRqTNKPLA7R9mDlIxvYy6HTrUHBk+SurhC5nCG/iNMPHZE7PgdypBSv0L6JFQpFLH32mt91g5paf9Y0fJ93xd/EIAABCAAAQhAAAJHQ+B/OxpLMAQCEIAABCAAAQhAICBAgEdHgAAEIAABCEAAAkdGgADvyByKORCAAAQgAAEIQIAAjz4AAQhAAAIQgAAEjowAAd6RORRzIAABCEAAAhCAAAEefQACEIAABCAAAQgcGQECvCNzKOZAAAIQgAAEIAABAjz6AAQgAAEIQAACEDgyAgR4R+ZQzIEABCAAAQhAAAIEePQBCEAAAhCAAAQgcGQECPCOzKGYAwEIQAACEIAABAjw6AMQgAAEIAABCEDgyAgQ4B2ZQzEHAhCAAAQgAAEIEODRByAAAQhAAAIQgMCRESDAOzKHYg4EIAABCEAAAhAgwKMPQAACEIAABCAAgSMjQIB3ZA7FHAhAAAIQgAAEIECARx+AAAQgAAEIQAACR0aAAO/IHIo5EIAABCAAAQhAgACPPgCBEyIw67fUalX863bVH8+0WMJjMRur3+2mZHTV7Y81K6lUaKs7Xiq7bvnFYpbToaVWN9JDC427Ofty7S7Gaf1bavVnSyxOLj2l37Lry66FLSw0G/fVzejeVbfb19iqN+unuOdsLPFpmVnP8l+6jYD3TIuM37fHPvECRxCAQG0CPn8QgMBJEfBGji/Jd0ZeYrc39UeOgvNyRn7qSlxm6tp60/i6Nx35jkw9x3encdH4wLalsotxqeTgqfL2uuMmOvheokNokudP3eW2xHLSDBI1Ko9svSp7ll2vvuaF7B3Xn8bgExtiP03d0D9u4h8rMy7jR7Kkgj+e479EvkFjdAv7guT6Wbcnelf1o6LOlbi5AAEIPIOAnlGXqhCAQAMJVH/BTn03CNaKwUF1HfN9bwOs/Je9uWSDwjhyWUpsafk4wMmGFIHA4JrjJ/GatSV9zjYdBUE1g05by7wu1e+J61V17fmiOqENcXBVsLFCn8gfaXm2jVhW1qgoSF/NfzaILsrcDvu0yhxDAAJPE2CKtvZYJwUhcOwEenrthjY+fkjPvc30bjiX5Opy0C5CaA90GdSb6Gqcrlcsuv6ZhcZXE0mORhe9opjea0WqR9d6uhg5kuYavrNznNGl2TsN566m1yVyipK3fsZ7b9g6etnJN5X4I77ivNGrEhfE181B+5XeGNPjv+34r/MybGT+3otbCg+awz6nOG8hcFQECPCOyp0YA4HnESj90p7dyYRWcl6qEINEzcX1bu+XrrNbW7sgKDM6VAU4PV37D0rHn+3BjYIYb3KlJO4MA0VndKHDCO8skbkKcZKk3rWvB2tU71r+w0BPxXdSW4MHX3H8umX/OcXIVM1ib33AKwSOiwAB3nH5E2sg8CwC4WiSieWSUG7x4TGUefaiMrhovzgLy8zfKz+e8yyFosp1dCi209YgGFqca/g23OCxGL/VUCPd2KCpWGnnZ3rRsOnkvKt+2W6VZ2pUh93q/lvo/jYceXxTOqTYDPbPREt1CBw0AQK8g3YPykFglwRmuguH6pT+0i4L+gpadV4qMytYKPC8E7V0KGuidxGO4s2Hejce6+1QGt3UGQUrE7alc71redF08uS8o1a3X7ored3Wa7FbxX+Lhcb9joZzR+40O2qa0bEJ7DMK8wYCx0WAAO+4/Ik1EFiPQJB65DyYinVGN5mpztUEPiqzfG+1ylso3dbgZhQEn5PhUHP38hm2JerNh53SlCWdYK1iUq7uUXvwIG86khssG5zovNMK0s9sa0VjtV7l/svY2+noViN5/kMyDVwqcDvsS5viJAQgUCBAgFdAwgkInAaB7Jf2uR7lajT1kjVfa2E404unF4mtJXntSvGmg4oNGmsIdkaeyUBQ+BeOxK0h0OyN6A10/eDHgd58MlQnl8NvPcmr1Cr3X2Kvp5ErGd3eJgsbqxvYAvvqxrgCAQikCRDgpWlwDIETIpB8aYeBysPDtQa9YnQWb6Ao2wWwY17FHZs7VmAHzYWBnhdPLdcKpJbotVn/tTW4CEdE58O3qc0rSxTgEgQgsBcCBHh7wU6jEGgOgXgB/uOH6h2y3nuZJfdyX29ld6oNUrRMh+YgraFpMr05f+bO5I37L06LU5KCpoZlFIEABHZDgABvN5xpBQLNJWAX4M9vdV+xKGwW7s6Q+3qV5CMz9VvdWqNA7Vdvwk0clbt068s6LEeEj/cqe6yY2i8U7U1+nspb8F8vGsVTJgXN89SkNgQgsFkCBHib5Yk0CBwfgadGbBZjhTmIRyrLQVwJxOZnqyyQuhDrUJ5MeTG+CnP1pao06XByl0vGbJRffJBJUOO8eVWZnqaWjTG7ihG3Gv4rTI0/JbOWYhSCAAS2SYAAb5t0kQ2BAyZQ+NJeomvvOloTNjlXdzxLpmrN7tvOUHPH1bRWEt6okcUsejJF+aL+Mt1619PgaRVmc0g6X9xiZtKfBBPEFRZ4Ch4Wobluq4YgK2pWnS7TL1122fXSa2Vc3w41r3p6SNSYTYFSKjOl0Mb9Z5Iwx6N45yodgQza3zz7lFkcQgACywg8/TQzSkAAAsdCwD4/VNEzZ4sPi19mqedPR67vOAofem9kOI7vjqZ+2ZNmi22l6pW0XyjvjErkhg+6d+L6oUzH6OGWlLfPr02XTz+kdZm5uWtP6bfs+rJr3nTku44TPQ/WMnJ8p8yeWCf7vFdb3rwWnyUbFw8Onum/En9k7Mpz3SD7rB28gwAE6hBomULLAkCuQQACEIAABCAAAQg0iwBTtM3yF9pCAAIbJ2A2aLRKExe3gvP1NoJsXC0EQgACEHgGAUbwngGPqhCAAAQgAAEIQOAQCTCCd4heQScIQAACEIAABCDwDAIEeM+AR1UIQAACEIAABCBwiAQI8A7RK+gEAQhAAAIQgAAEnkHgK8+oe3BVzYJo/iAAAQhAAAIQgMCpEKhKhnJUAZ5xZpWhp+Jo7DwtAuZHDX3+tHx+ytaa/v6nP/7+lBFgOwQyBP7sz7+ReZ9+wxRtmgbHEIAABCAAAQhA4AgIEOAdgRMxAQIQgAAEIAABCKQJEOClaXAMAQhAAAIQgAAEjoAAAd4ROBETIAABCEAAAhCAQJoAAV6axqaPZ/3k8UfdsRablo+8HRJIP86KR1ftEPxqTXHPrcaL0odF4Nc/klk0H/x7daM/HJZ2aNMwAgR423RY71q+N5JT2sZC4655/mVfs9Lrmzs56+ees5kLNpdf352em7P4aUnLbS6r39O172lU7syyCpyLCeywDy2952KFtFjM1O92kx9g5pmz3a66/fHW78dEC462T+BL/fSVCZh+pF+u1JitFwVbf/4N/eDXSwR8caNv2sDsz7+hb06+XFJ4yaVv/1h/+s3f6pMlRcovWX2zdv7ybxL948Ax0vObr76nH0w+P5Agslz/clt3cfbQ9FnPZgK89bjVr9V+obP6pbdSsnfty7ORiTuV/zBQO9XSU9dTRY/mcD2b23qxb2cejQe2aMgT99xi3FWnc67Hs0t5vh+kmQl+iM3nmk9u9YGh9i06pymiv6q/uv+97r+f6PvZ9PPkTe7oD/9jpn+Pzn3689/r39yv5kqs8PZrX9vYd8Z3/vH3+vD3HwWNf/L3vwpSzJg0M3/6za90+b9Lj3/3qV78+ff00y9W0I+ijSFAgLc3V7U1eDBfLtfq7VAH52VnaWvF68/TMxgpy40YLlVgDxeLNu9BiaNu8nl9aKNoZn11hnPJnerhupf80GkP9DB1N9rUNoQ14X7aht3rywwDtT/98cf6zhpCOi8+kj7+KBxR+9m/VowCfq53f/c7ffJxGEit0UztKsGIXOnU7Yp2fu2r+s4//kL/9vPvSvqdfvgXuwnyNqZ/bWLLCx6aPsu1Xf0qAd7qzKhRm8BCHx5rF6YgBLZMYKHx1USSo9FFyc+q3msddojH/bTlDlIhvqfLYBTsn3VXNk3763/VZ/qu3vxlRfWNnf5SH/7XxoSFgr7942iU8nf64X+vHqHcTKtb0P9Zih2aPs8yprQyAV4pFk5uhMDiXrfzjUhCCASeT2D2TmbwTs4bvUqvUYglm3WWDxqUXosL7e+A+2lv7Dv/qReM4hWnab/UT/+ff9Ynf/9/6tW2tfvif+r2t5tv5Dv/d7Tmr3KEckNtbkn/tbU7NH3WNqS64mkHeIuxumZxdfDPbHZYaDbup8511Z+VLciJygWbJKL63aqyJfAL7RbLLGZ9ddPyW111g6lOu2Dd6t1Sq2+3aeSvPXO35xN6FnVsqdsN25z1u2p1hgriu/lQnZhzS7G6lnfazjKOJXoEbVuZ3b76aRnmfNzIukzKfNzX3TGMSC7KbbO9KOiNTzIfa7FmGSnvk5r+qqN38VaKzyzscPLZi2RqNr5adVDGquReT7PILEmo2H2dLh9ttFqkP3u6fY1THz1L76dx/nNM2v79UcXrgM5nNj5kNx8YLf/w6x/pm8EGjGQjgtl4ULoe7Wv/QW8+lpQPgoIg4SO9+U8Va+7SOmSmVj/XD+JNGRVtplD+8m++pz/7i38I1/n99h/0Iq77Df1gkt7gUbQzJab8MF7z90EfStbi/WHyo+wGklc/0i/Lyi3huZb+aXbRJpmMLq9+VO6rL77UL43Oad8anVPWr6VPXL9M/vf0g1/nNtasq3/czgYO/CP6Cx9Fu6pBU9+VfDmu77quP/Ki+t7UHznyjUx3mpU5de35uLBvzzmxAFvHyh/5tnR4xYvku35OfCzLnUY1vEiGkrLV7ZXL9UZOYEtRv0ibyut15Xn+NJKR8KqyPWzT2hDb6Xux7UU9Ez2Mn0wdbzryncB3IVsrb1ndNOtlTKysRDff96ZuwFBykn5i3byn11X7vLVZ7jTqjwlzcy779zRz31+tTLoFy7iOv1bTu7zfVbeXtTr9ztZJ+kHCq6C3l+2PiRzLKN9vkvOO4/ij+H6P5KTu91BWuV3hNSsr/BzbxP2R6H84R6a//+mPv1/h36/8n3xsPq+/69+n6n34+4+Ce/mTv/9VJOtX/n107tOfJ/KDch//rf/hj7/3i3Wic9//LJBhr6frB7r+5m/9T8znVCQn0d/q9pH/k98kbf7pj5/5n5aWrzpv6lpZWTtNW1avxNZ0W+m68vO633/fsPvI/8nPI06/iXRYi+c6+lu7PvI/+TitR8S0Qg99/7PAZ4ZLaIN8cy5hb+xeR5/fx/I+tUxSbRQZr6Z/Vr+8n8rfL/sOOO0RvCBA7uilSX0xf9TLi+tkeqbd0+AmTHEyuUrlsJv1dT6RnJGn656dy2mrdz0N1u/Mh28zv7xXjsEj+WYReCy/3dOF3QUbCey9DlcLzd97uSY8vZ8b/S5KN2/Mh51saohoFCxYeJ6TtOytZxqRozfxXFdbvcFN/TQia3OcSK+vAzbt3kCXqUVT6zIp2FnmA0nt3kV9+wpCD+mEq2m8waCt3kWUyufxQ0WuxmrmiVV1yiSlzdHq/lpV72x7K79btY8+sXu3uv25zi4fNLCfJ23brx/X2NFb7YfVeVdr3PQr3offSUqPvH1V33H/m35iRukq/r4eTdP++7/8zyi1SLi54tPzb1XUiE7HI2TLix3c1V//SK9+Jn3681/or74djVB+7Vu6iNYjXqVSwazDczV7f6ezv07r8VaXwQ7nslHH7+r+H7+lrwcNfFXxFPT/+uL5KWEiJmZH8j9ZJjIbVj7Tp5L+/e/+a/moolbRfzUyy0oT4MV0zvTCxmv2nP3Anr+XDaNmd2aRtnRWKNxTGHPNdXufmluxsmq+Wvnu6+wi8PbgIbvj1gYbk7ts3q7ZnSZydVmxkMgEpr5NDZF6jdOo1NQzLDbX8G1fySx2uFvyOqt6qURr5+ocXaXRmHQncdqXNZnkFbS65X0gNT9NSqEfGeNtP8+DiN8vYb5SmbhweLCCv9bTO9feim9tP1i9j67YkLJ8k9pzFX6/JRcrjrKytnF/VDTcwNO/0w//S3q6MdyJ+k/frjDla1FQ8duZ7s0UZbS54nVV+QoxTTn9y+k/B0Hwy69lNY4D3Q9fZi+Y3bir8MzVXv72uyrn/Du9T00Xf939hQo7pjcYYIdMpLN2fkr+W3odBJy/0+3/yHMxltXTfzmD1a8S4C1lFo3uyf6StrvYHJVlG+kEQ4FLBT5xcbn8bOW2Xr0xQ48TXcWLdcJdglWjd9n6z3vXu/Y0ch1pPtF5xySJ7WucRHpPCF9u5/ocN8FkuW5PGMbllQhswl8rNRgULo56l8lY3g/W76NlbRXPbUf+fngXrdv/me/846/0k+9/JP32n/XqL76hPzPrufJrqErU/M55mFbk9n98LvNlbzZXrJN+pUT0Hk99qffB5o2PlARzdoepSaGSrFEMkiXbtYCpEbF1eT7H6CCFzXMErFzXMklzSoSsqs+q5ZOW6h8R4NVndXAl24PLcFr49j6cWgt2CVaP3m3WgLYG1w/yvWkc6A3PO2plFphvtsU60vbLpI6GB1BmMdPYLOg3T24IpujPFY5L71639qs3wZNe5nX68DP1joOmyqno3du/6xa5Pyzxr+qv/vEX+tNvPosDvR/+5/9Df5bZCGHLpl6//R+jqbhP9epn6SneVJmmHX7xhYK9Yx/39Co3WmdGnu5NYuSyf/dvo2lQY/CaPLfB6ovP9dNgk8X3os0hn+qzbbTTAJkEeEudFK5nk/LTt+VTJ+G6tLLp26WNPONiNC08v5WZFQ6mlNzXpWvvntHI8qpmraIN9IK1jEO9y2zHXFZ9GxwPgMkyk/d8zTzFodU5161e6+bmQQ/BNH24fnQvqtn1Zqk+XDYCvQm9bTCp1JKLrM1mx2t+5/k2+mi21d2+4/7I8P7at5JAz6y/++0/6F1Zrru4kp2Kk1QaEMUFG3Pwy/8e7s795C//QypgW1P9lXmu2U5FtT9MzG7jT3Wr/6ib//cX+rcgMA3Xx1VUWeN0dlrYCgjXIZZN39oSu38lwIuZ22nY+ISJmMKRjThoslMc0uQuH8XYKZ3sGpiUtBqHVn79dXzhwmmzFq6rq0lFAtcaLa9WpOSLsN2LpoxLJBW+UK2d2+H4PCZWtzIfWB+X2NiEU4ux3tqnOAx6aufXnO7JBuuv23d9XU1KRqA3pbcNJjPLGhKjF+Or1Eim7Qdr9NFCf7c/FJO2nnVUkL+aNMt7t58Zq+m43dImRUkuNcnXvqVXf1nvSRThNK306V+nR7BqaPzbP8RrucPSdmq0Rt10kYKc9MUVj7+40dXPTJ3v6jLzeLWvRjwqkjtnmlmR5yb1T+vxxY3e/t3vpO9/pn9zv6WvF0Yj04VTx7X1sUyksnyIYRLqqrV2qfZ2eEiAF8Oea/jOZMKL/szDyM122VzW+7bdKTo5T+XIW2jWfxskUS0bfQgkFj6U7Yd+NrCMp1DMbtzUmrbFbBzlwbMKRq92obp5jqZ7mewCzhWzb59af1S8Xq6nZILKcbLBYjHTfZDVOL0+0W48megussXk5+qPF1qdY5Ue1rLU6zOZZHxgO4SZHuy/023QTPmoTkqDwzy0mynMxpyUXf3ulR6D0ddkM1FoQB3mGygTPUFiPploHv+YSiFcWe+obuGeU2q3eyd1/5q8cVHwm2525Xs96e/xutig39yFfFOyw8NqdnY2IFslkZ+/n6RqWVkZZvtytBu85mdGoX6jTtggKr/b0mwIuEnyuX3xue7/JdxZm6xDk4JRmXwA8O0fB1OW+c0YdgSniMeO+v2z4p2nZhrxb/5Vj0t27SrfrhI5d9F6QZPL7wfBbtYqO4vaBGdsrjiznu7j7+r+N8VHuX3d/b+C6ejP/vP3susTA91N3re07Do819G/2q4Cb7uZwuQqtBsvvvhcP3j1/4WcN8Dz63an9c8+TeW9+1K//Jv/qh/+ViVrMlfQP41zU8eHk+Ho+ZosywdTLd3mj3J81w1zxRk55p/jjnybmipb3+TCcsIcbLas4yZ5rGxhmxcrKpPkT7N57cJ2kvNRRZODL6OL4ztx3jIrPHkNc4Tlc2wl120uL2uXnGxOvurrVXpG9kd5Aq1cx3FLeE19Ny7n+G4mT2BNjn5ej2JuwsTa8Oi5THxvlNI76QtpVoU8aHkldvDesF/pz+QOTPkj7Ff2HjD90fajOszXKWPlZ7V+yl9+Xb0r77l0e8V+F9zvjvkMyN4bJs9frXs9Fp/u76bfhPkG0/0mTDeYZ5dwSZcN9MrcM2n59n7Ky3r+/RGbc2AHhkf9XGE2Z5v9nLX55kxuNJNXzZ4PXz/5+Lv+fZyPzuYvs2Vs3bJcZPmy8ov50D7zP02190mUpy3O0aYoB53NmRd/Z+TbTcv5yP80yONXZWeSs81wy/4z9n83yG9ncvxVM/2V/5PvhzkDbf0sJ1O3Dk/bxir617cr5v3zv0359SM/5Jz2z/N4hpwie1NMLcssxzX0X+oLyzD7avxS9dcyFzYVLO5bjnkixermmKz6HQ3nrqb+9W7Xr20ImFmf1Hl/Kb9OfpINtXnoYk6FyXp9/tC9h37bJtDU+8P0d7Pgnz8IQCAkYHY2V8U9XwFS0wnM9G44lzutkXyu6abW1h8mtVFR8AQJcH+coNMx+QQJsAavgU6f9VvqRrnvgoXhzkgXJx7fwaSBHRmVd0aA+2NnqGkIAgdDgBG83OJk+7Sgg/FQhSLz23fBEyyuhtLIG6zw8PQKgUdwGiZH4ERM2BoB7o+toUUwBA6SwGmP4C3G6rZskte5hp2W+vnsJwfpNvPs3InOh486mz48uXP2UE3YuF4w2ThSBB4RAe6PI3ImpkDgaQJHt8niaZMpAQEIQAACEIAABI6DwMlssqgy9DjciBUQyBJgF22WB++OmwC7aI/bv1i3OgGzi7bq77SnaKuocB4CEIAABCAAAQg0mAABXoOdh+oQgAAEIAABCECgjAABXhkVzkEAAhCAAAQgAIEGEyDAa7DzUB0CEIAABCAAAQiUESDAK6PCOQhAAAIQgAAEINBgAgR4kfMWs7663ZbMLq3gX7er/mxR6dpDK1+pKBcgkCewWGg2zvX3Vlfd/kzVPT4vhPcQaCCBLz7XT199Q9+cfNlA5VEZAqsRIMCTZB7j0zl/1NmlFzy01/c9Td9Ik/NO/EiwNNZDK5/WjWMILCUw66vV6eh8KF3e+El/d+eaT87V6Y4J8pYC5GJTCfxh8iN98y8+1Q9/21QL0BsCqxE4+QBvMe7qfCI5oxtdx88pa6s3uNHIkebDt4oe+xqQPbTyq7mb0hAwBByNvGvF3V1t9a6ncs2l+a3uGcajmxwTgS8+1w9efUNv/0U6+zg07Kz91WOyEFsgUErgxAO8he5v58EX3ptX7Rygtl69ccw3nm7jb7xDK59TmbcQeIpA71q+X/Z4u45emu7OHwSOisCX+ul/+Ve9/Otf6d/uf6yLv/zoqKzDGAgsI3DiAZ6n9ya+05le5OM7Se0XZwG7+XsvYnho5Ze5lmsQWIWA7dur1KEsBA6dwFf1V/c/1l99mxG7Q/cU+m2ewIkHeHbU4lEflk1LPX6I1iUdWvnNdwgkniiB2Z0mxnT3UoOSHzsnSgWzIQABCDSWwIkHeG2Fg3RzxYN0S115aOWXKstFCNQksND4yoR3rqbXvZp1KAYBCEAAAodM4MQDPKl3MZJZejQ576Y2U0RpJMzuC/N39kJ2UOPQyh9y50K3ZhCY9TsazqONF81QGS0hAAEIQOAJAicf4Kk90IM3kuvMNezYHHhvdffiQjdmG63ZgvGyk2A8tPKJZhxBYGUC4a5wE9yVbbxYWRwVIAABCEDgQAh85UD02K8a7YGuHwa6zmkxuwt2YOgsvwPj0Mrn9OYtBOoQMMFdZyi5U4K7OrwoAwEIQKBJBAjwKr210IdHc9HV61rLkg6tfKVhXICAye6tznAud+qLZXd0CAhAAALHR4Ap2iqfzt5pODcJkC9UK747tPJVdnEeApqpfz6RM/II7ugNEIAABI6UAAFemWMX4RegnJFu6uSMOLTyZTZxDgIRgVn/XJPSvr3QuNtSfwYqCEAAAhBoOgECvIwHF1rM+up2zvXojuQ9DOLds5li8ZtDKx8rxgEEygnM+sGj+TQfqtOKNhXFr2Y3bXk1zkKg+QS+lPfhd4EZn00/1x+abxAWQGApAdbgRXhm/ZbOJ44c50yXnqde2yZGKed3aOXLteQsBLIEZndR6p/sad5B4GgJ/GHyI739lw/699+GwV1g6M8+1YufSZ98/JHO/voX+qdvH635GHbCBFq+7/vHYn+r1dIRmXMsbsGOLRKgz28RLqIPjoDp73/64+8PTi8UgsC+CPzZn3+jMu5hinZfXqFdCEAAAhCAAAQgsCUCBHhbAotYCEAAAhCAAAQgsC8CBHj7Ik+7EIAABCAAAQhAYEsECPC2BBaxEIAABCAAAQhAYF8Ejm6Txb5A0i4EIAABCEAAAhDYNYGqzaVHlSalyshdw6Y9CEAAAhCAAAQgsE8CTNHukz5tQwACEIAABCAAgS0QIMDbAlREQgACEIAABCAAgX0SIMDbJ33ahgAEIAABCEAAAlsgQIC3BaiIhAAEIAABCEAAAvskQIC3T/q0DQEIQAACEIAABLZAgABvC1ARCQEIQAACEIAABPZJgABvn/RpGwIQgAAEIAABCGyBAAHeFqAiEgIQgAAEIAABCOyTAAHePunTNgQgAAEIQAACENgCAQK8LUBFJAQgAAEIQAACENgnAQK8fdKnbQhAAAIQgAAEILAFAgR4W4CKSAhAAAIQgAAEILBPAgR4+6RP2xCAAAQgAAEIQGALBAjwtgAVkRCAAAQgAAEIQGCfBAjw9kmftiEAAQhAAAIQgMAWCBDgbQEqIiEAAQhAAAIQgMA+CRDg7QKqmkYAACAASURBVJM+bUMAAhCAAAQgAIEtECDA2wJUREIAAhCAAAQgAIF9EiDA2yd92oYABCAAAQhAAAJbIECAtwWoiIQABCAAAQhAAAL7JECAt0/6tA0BCEAAAhCAAAS2QIAAbwtQEQkBCEAAAhCAAAT2SYAAb5/0aRsCEIAABCAAAQhsgQAB3hagIhICEIAABCAAAQjskwAB3j7p0zYEIAABCEAAAhDYAgECvC1ARSQEIAABCEAAAhDYJwECvH3Sp20IQAACEIAABCCwBQIEeFuAikgIQAACEIAABCCwTwIEePukT9sQgAAEIAABCEBgCwQI8LYAFZEQgAAEIAABCEBgnwQI8PZJn7YhAAEIQAACEIDAFggQ4G0BKiIhAAEIQAACEIDAPgkQ4O2TPm1DAAIQgAAEIACBLRAgwNsCVERCAAIQgAAEIACBfRIgwNsnfdqGAAQgAAEIQAACWyBAgLcFqIiEAAQgAAEIQAAC+yRAgLdP+rQNAQhAAAIQgAAEtkCAAG8LUBEJAQhAAAIQgAAE9kmAAG+f9GkbAhCAAAQgAAEIbIEAAd4WoCISAhCAAAQgAAEI7JMAAd4+6dM2BCAAAQhAAAIQ2AIBArwtQEUkBCAAAQhAAAIQ2CcBArx90qftpQQWi5n63a5arVbyr9tVtz/WrKTmYjbOlY/KLvKFZ+qnZbZa6o7ThYrX+0GDC427aV3GStcKW8nV7UZlZv3EhlzbGfuia2F70qyfai9fL2Ax0yKjRE5HU8fqEGFYjHNMbWN5TLyHAAQgAIHmEvD5g8ABEvBGji/Jd9yp71n9vJHvSL7k+KP4ZHhx6kblR0l5b5qUd6dWiH2d+m4gS37xminj+SOnqi1zPvzn5BUJxEey04KnbljHHcX2xDbGMmybWZ2K5UL9rM2S62fN8/ypG+noJO1Zy4Palm/cdvoqxxCAAAQg0HQCjOA1NzY/Xs1nfXWGc8md6uG6p7a1tD3Qw9S17+JXMyJ1PpnLGXl6GCTl272BHryRHM01Oe/nRv06eukYEY5edmJRqYO2XpyZt2d6ESsQXu6Yio4jU30+fJeTa8qEsp2CYEeji0FiT6q18LCtwY3Rt85fW73rB4U4JrrKjECaa1MFpOa3us+M8BnZC93fRnwHOePqNE0ZCEAAAhA4eAIEeAfvolNTcKHx1SQIvEYXvaLxvddh4BJfmemdCQbl6rIsWGkPdBlEOvkgKBaw5sEbXY5MKDbRed0pTueNXj0VT7Vf6U29CC/QOwg2TaD53svZ0dNFoN9cw3e5Ce3ZOw3nrqbXJXxzUngLAQhAAALNJECA10y/Ha/WQfBh4ruqYKina/9BcSw3u5MJB+W8VOlAnBlPC4fqNL+9L1kztz7KzuAyDDYnV8oMoJWJ7F3Lf1g2emcrtTV48LVq7FUcLZTagxuFMWhavzCAdkYXIryzzHmFAAQgcHwECPCOz6eNtmjx4THU/+zFkqnMxMQ65dvhXKsZ5lJ+nCuRtM5RT9fBHOlcw7dlGy7WkblKnWiqVY7elA4NtjUIhi8T/RbjtxpqpJs4Ql6lPcpCAAIQgEBTCBDgNcVTJ6Kn995Mt5oBuarxuCyIWuU7L2uua8vKrvWudxGOks2Hys+E1qq/bqHFQuN+R8O5I3eaGtHMy0vrNx7r7VAa3dQZScwL4j0EIAABCDSJAAFek7yFrs8k8KgPhQ0HzxSpZGNEcSPHc2Vn68+HnSTVSqejW43k+Q9PTOem9BsONXcvk+ntrHjeQQACEIDAEREgwDsiZ2LKUwSKO2KfqlHremojR+0NF7UEZwuZXcK+78v3PY1caT4Z6u2Ti/8kxRs3zC5eVt5lqfIOAhCAwHESIMA7Tr823qrirtByk+INFIVdpOXlt3U2TktSZ8PFs5Voa3ARplOZD98+vcHj2e0hAAIQgAAEmkaAAK9pHjtyfW3ApscPtXa8xhsolpX33itY2ee+3uLO0XRakvvteykeNSxJg7L91mkBAhCAAAQOnAAB3oE76NTUa796E26IqNzxah4F1k1GrewGitKEviG92V2QSEXu6/T0pE1kPFf54N9CdkNvXR8kaUmGClLz1a24ZrleNIqnnYwarqkk1SAAAQhAYC8ECPD2gp1GKwnEI1PliYkX46sw750VEJevGMlajBXmTR4pv/zMjhY+lu28WNzLPOxBK4362bQkVrnNvhamrZ+yfbPNIw0CEIAABBpEgACvQc46FVXtejaza7Q/S7a9LmYmzUeYRiXNonftRQl9z9Udz5Kp3cVM/c5Qc8fVtCTJsB1xy7ejxUzjt0PNVf60hyA1S9UIY+86enxYWsPyY5vipRC4lRcvPZuM4p2r+oEansLsM3PdFp9bViqXkxCAAAQg0HACTX+YLvofKwHPn7qO70i+Uv8cx/Fdd+R7BbM9fzpyfcdJlTdlR9OSsunKZe04vuOW1fP8UVq+HH9UVMT3vVGgt1N60bQ99d2UTaF9rj9NqxUdT92UPaaOU7Q9U8bNSZm6GX5BW/kyJe1yCgIQgAAEmk2gZdRveIyK+hCAAAQgAAEIQAACKQJM0aZgcAgBCEAAAhCAAASOgQAB3jF4ERsgAAEIQAACEIBAigABXgoGhxCAAAQgAAEIQOAYCBDgHYMXsQECEIAABCAAAQikCHwldbzTw1artdP2aAwCEIAABOoTYP9dfVaUhMAhEthbgGdg8AFyiF0CneoQMD9Q6L91SFGmiQT4Ad5Er6EzBLIEmKLN8uAdBCAAAQhAAAIQaDwBArzGuxADIAABCEAAAhCAQJYAAV6WB+8gAAEIQAACEIBA4wkQ4DXehRgAAQhAAAIQgAAEsgQI8LI8TuzdTP1WS2ZBdavV1XhxYuZjLgQgAAEIQOBICRDgHZFjZ30brEWv3bGWx2w9XfueRs4RQcCUhhJYaNxN9d/Svpv+QdJSq7RMQ81HbQhAAAIbJkCAt2Gg+xTXu/bl2WjNncp/GKj9pEJtvTh7shAFILBlAm0NHnxN3aiZ+VBvC0PK5gfJVEGR2v17y2ojHgIQgMCBEiDA24FjgpG1HY82OC87O7CMJk6BwC77b+elIzmOzKDyfPhOswLgjoIi9O8CGU5AAAIQSBMgwEvT2MrxQh8etyIYoRDYAYF99N83ugxGoic67xdDvB0YTRMQgAAEGk+AAG/bLlzc63a+7UaQD4EtEdhT/+0MLsOp2MkVm3+25FrEQgACx02gcQHeYtZXN70Yu9VVtzD9udBsnCvX7ao/y205WIzVtbtIMzLSi7lTu0vT5Vv9YPpoYdqJZfQzX0azfletzlBBfDcfqmPLtVrqj1NtW1nGNlum21c/Y2dLrXg0I7cgvfYO2DIufd0xwrizu5z+a1DX6b89XQcL8uYavn1qs1DkvkV5/86MAa5wD2d9ZT4/yrtJ5jOg1VK321f+o6a8JmchAAEIbJGAv6e/8FG0qzU+deWbeu7UCyt6U9+VOef605SoQjnf8+05ZxTVteW9ke8YGc7Iz17x/JFjZDt+tkpy3nEcfxTrEsnJ6eL7kY4F+UYBK8v1XdcN7PKmWX0q9U7VTdvujZyAUcFO348ZxPyMBlM3KF+00wLitYwA/XeL/Te+V+z9Ye5564XwXL5/234vdxrdx8k9b85l/6xcx6+6h13XSX3OjEo/Z4zM8P5Mfw6UfyZl2z/8d+v078O3Cg0hcFoEzAPT9/K38geIDURyH9bhB3sqwIvK5b8A4kCrELBVBWDJl0B5gJf+0gkRxh/2mUixSr6pY9vIygrk2C+5CrutPXk77Rdd/rxfKcfqkA9k99ItGtMo/XeL/df2/aCJ/A+nsL/m+3fhcyBdNy0v6GG2z2fvu/T9mJdvf2hlPn6ieypzztzVS35kBc034L+V+3cDbEJFCJwagcZM0c7uJsE4pvu6lxnPbA8e5PvXsmdtubMX+QQhPb0O8ivMdXufm6rNSKz7xlVOlajiXO+9ujJsuawsk+4kTnHSuwjz1E3usjsKZ3eayNXlIG+nlZl9tVzy/CTSpGRJbeddFX/67xP9tz3QZXDfLt9wkecYeLH9QsszAGXvu+RecPTmVVavYHdvrmuEPnWU39DbfvUm3AW8+gdBrgXeQgACEFifQEMCPLuTr/hhmjV9ebmyD+ls/ee92478tl69MUkjJrqK84ItNL6ayBldxIHtcs2Xc1lel6vPJ1CX//Jy2+lfiXXbkf/8/tu7jnLfHdSGC+uruYadVIJms4bWrrt9/PBEovGEPUcQgAAENk2gIQHeps1ulrx2tKNwfnsffmHM3mk4rz961yxr0fbYCDy///Z0EaRNmWv47r4az2KmcbC5qhttVjpXOO5fXeX5V1xNfd8sdSn+q5Vo/PkaIAECEIBAGYEjDfDKp0m992G+kuL0bRmaQzoXTS/Pb2Vml4OpIfd1zdG7Q7IDXeoRoP/mObUHN9FShaGGJWmHFmOzY/1ct3qtm5sHPQQBVzTylxfGewhAAAInQKAhAZ6d5nlq/ZwtJ03u8jkN7JRKft1N5OX5e2WXznmK4sHNdIOC/NXE9oIFhCZlRFdXE0ejC7vqsI4cy6WMn+VSRw5l1iOwjH9aoi1H/01TCY/bGoSL8YqXFmO9NVGfO9XDoKd2dvlcsfxGzlhfTVT4qNmIfIRAAAIQeCaBfe0qWX2Xlk0/kEpJEKT5GPlOZpdceoec3c5qUiY8nT4k3jnnTf2R6/pOaZqUlB5WfASxdKddnErB7NgLK5jUJG6wNbdaVtEviV3FtA9JabuDr1impK2MnfkdhYlMjooE6L+mL5f0qSKq6Ey9/hveQ6ld8Tl59h6L79XgutXD9W3WIt+kUHJMGpRiGqVqvRMd8ztjl7eb/UwybY+CNCs55Rv0dvX+3SDjUBUCJ0KgOWlSjEOiD07z4RP+c3wnznuV9lgY0AX57aKyjuMmOevSRYNj82VgZSqWaT/UTVvhB779IrFlk9Qi6bKmfOELKJbv5II7K8u2UVAuPhEGb0mb8YXoIK9DIbefN8rZOQq+ENP1snrnW+C9JWB8vPIf/bckr6SlmARX9t7OpieKykV5Kwv91OSPTN1j4edCWqa9b/L3sL3v0mXDe9K2kb4/ive2FwRzoc5RPScVaFrzGva6Vv9umI2oC4FjJ9AyBj5zEHCt6q1WK1iUvFblE61k1hl13l/Kv15levZEYW3ZbPrv6oDpv6sz21cN+ve+yNMuBDZHgABvcyy3LMk8Pu1cmvoivtsy6hri+QKsASlThP6bwXHgb+jfB+4g1INADQIN2WRRw5IjLDLrt9SNct8txleaOCOttLfiCJlgUnMI0H+b4ys0hQAEjo/AV47PpOOyaH77LniCxdVQGnkD7WSD4HEhxJo9EqD/7hE+TUMAAidNgBG8Q3f/fKLz4aPOpg+q+VSyQ7cI/U6JAP33lLyNrRCAwAER2OsavAPigCoQgAAEIJAisKf9dykNOIQABJ5DYK9TtHyAPMd11N0nARah75M+bW+bgOnf/EEAAs0mwBRts/2H9hCAAAQgAAEIQKBAgACvgIQTEIAABCAAAQhAoNkECPCa7T+0hwAEIAABCEAAAgUCBHgFJJyAAAQgAAEIQAACzSZAgNds/6E9BCAAAQhAAAIQKBBoVoC3WGg27qvbbcns8gr/ddXtz7QomMYJCBwKgYXGmT7bUqs/OxTl0AMCEIAABI6QQHMCvFlfrU5H50Pp8saXSbHi+56m7lzzybk63TFB3hF20OMwqa3Bg6+pG1rjjDz5PFD4OFyLFRCAAAQOlEBzArwAoKORd61e/LyutnrXUwXfm/Nb3TOMd6DdDLXSBM5exB04fZpjCEAAAhCAwMYI7DXR8UpW9K7l+2U1OnrpSJqXXeMcBCAAAQhAAAIQOD0CDRvBK3OQp/cEd2VgOAcBCEAAAhCAwIkSaH6AN7vTxDjPvdSAma8T7cZHYHbZBqJuX5mtGIuxuvHmInMt2nQUn+uqPytZp7CWbGlhNjRZ2d2+xiWij4A8JkAAAhA4SgIND/AWGl+Z8M7VlEXrR9lBT8GoxbgbbiB6/1o3D3bzkFl2MNF5erdte6AHP1pz6kh3/Xf68OpaD2bDkTfVyJlrct5Ruspqsj2NzHIHPeqq29X9i4tI9kjOfKJhJxdwnoJzsBECEIBAQwk0OsCb9TsazqONFw11AGpDICQQ/kgJB6Hb6l2MFMZaH3K7w+2a00e9vLhORq3bPQ1uwjqTq/yO8rqyrS/mOrt80MDuZmoPdBnsZHrUB0bxLCReIQABCBw0gcYGeGZk4nxigruH5EvuoFGjHATKCbQHD/L9a/XSl9svdJZ+Xzg+U2Ezrq0zfy8vKr+ebFevM8rYxud6bwXbU7xCAAIQgMBBEmhkgGeCu85QcqcEdwfZq1BqTwSi0T1tfqStE2xV35NZNAsBCEAAAisTaE6aFGvarK/OcC536otldxYKr40nsJhpfH+n29tHaT7fbNafbcpuPHgMgAAEIHCcBBo2gjdT/3wi8yQAgrvj7JCnaFW4EeJct3qtm5uHcGOD3UyxEhCbMiiZvt2c7JUUoTAEIAABCOyZQKMCvFn/XBNnpJtCPpTwWZ/p3YN75krzEKhHYDHW2+HcrDfQw6Cndu1UPyXTsHHKoNfher61ZddTnVIQgAAEIHC4BJoT4M36OjcZUeZDdWxurvjV7KY9XMhoBoFKAnZjxOROcQq7xUz97pUegye0JBsmsjLmGr4zmfCiP1MnuEEcjS6iHRIry7YjgMXg0SObuCXNKwQgAIFGEGhMgDe7C9IZNwIqSkKgPoGerqcjOc5E552WWq2uuu+ki4cbvQmETHTe6pYkGXbk6ir5sdM516M70jSzq3wV2TP1W+dh0nDNNewkbc76rfDHlaTJeUtdMh7Xdy8lIQABCOyJQMv3y5/wum19Wq2W9tT0tk1D/gkQWKf/2kDpeRuEzHIEM2LtappPrXIC3DFxNwTW6d+70YxWIACBugQaM4JX1yDKQeAwCSz04dFoVpVj7jC1RisIQAACEGgmAQK8ZvoNrRtFYKFZ/22wTtSd5hIaN8oOlIUABCAAgaYQIMBriqfQs7EEFuO3uno809TbRO7G6o0QjQWE4hCAAAQgsHECrMHbOFIEngKBvaxRWozV7QwzSZCft57vFDyFjesQ2Ev/XkdR6kAAApUE9hrgVWrFBQhAAAIQ2CsBNsHtFT+NQ+DZBPb2qDI+PJ7tOwRAAAIQgAAEIACBUgKswSvFwkkIQAACEIAABCDQXAIEeM31HZpDAAIQgAAEIACBUgIEeKVYOAkBCEAAAhCAAASaS4AAr7m+Q3MIQAACEIAABCBQSoAArxQLJyEAAQhAAAIQgEBzCRDgNdd3aA4BCEAAAhCAAARKCRDglWLhJAQgAAEIQAACEGguAQK85voOzSEAAQhAAAIQgEApAQK8UiychAAEIAABCEAAAs0lQIDXXN+hOQQgAAEIQAACECglQIBXioWTEIAABCAAAQhAoLkECPCa6zs0hwAEIAABCEAAAqUECPBKsXASAhCAAAQgAAEINJcAAV5zfYfmEIAABCAAAQhAoJQAAV4pFk5CAAIQgAAEIACB5hIgwGuu79AcAhCAAAQgAAEIlBIgwCvFwkkIQAACEIAABCDQXAIEeM31HZpDAAIQgAAEIACBUgIEeKVYOAkBCEAAAhCAAASaS4AAr7m+Q3MIQAACEIAABCBQSoAArxQLJyEAAQhAAAIQgEBzCRDgNdd3aA4BCEAAAhCAAARKCRDglWLhJAQgAAEIQAACEGguAQK85voOzSEAAQhAAAIQgEApAQK8UiychAAEIAABCEAAAs0lQIDXXN+hOQQgAAEIQAACECglQIBXioWTEIAABCAAAQhAoLkECPCa6zs0hwAEIAABCEAAAqUECPBKsXASAhCAAAQgAAEINJcAAV5zfYfmEIAABCAAAQhAoJQAAV4pFk5CAAIQgAAEIACB5hIgwGuu79AcAhCAAAQgAAEIlBIgwCvFwkkIQAACEIAABCDQXAIEeM31HZpDAAIQgAAEIACBUgIEeKVYOAkBCEAAAhCAAASaS4AAr7m+Q3MIQAACEIAABCBQSoAArxQLJyEAAQhAAAIQgEBzCRDgNdd3aA4BCEAAAhCAAARKCRDglWLhJAQgAAEIQAACEGguAQK85voOzSEAAQhAAAIQgEApAQK8UiychAAEIAABCEAAAs0lQIDXXN+hOQQgAAEIQAACECglQIBXioWTEIAABCAAAQhAoLkECPCa6zs0hwAEIAABCEAAAqUECPBKsXASAhCAAAQgAAEINJcAAV5zfYfmEIAABCAAAQhAoJQAAV4pFk5CAAIQgAAEIACB5hIgwGuu79AcAhCAAAQgAAEIlBIgwCvFwkkIQAACEIAABCDQXAIEeM31HZpDAAIQgAAEIACBUgIEeKVYOAkBCEAAAhCAAASaS4AAr7m+Q3MIQAACEIAABCBQSoAArxQLJ9clMOu31GpV/Ot21R/PtFgifDEbq9/tpmR01e2PNSupVGirO14qu275xWKW06GlVjfSQwuNuzn7cu0uxmn9W2r1Z0ssTi4t069wLcW4+wTXZXXTvuqO85AXmo376mbs7arb7WtsTZr1U77KcUnpaNuxKAo6xQxzfOPzCSdppn5admmZpLxty7adXImONm5DtoX6fXrztmc14R0EIHBSBHz+ILBhAt7I8SX5zshLJHtTf+QoOC9n5KeuxGWmrq03ja9705HvyNRzfHcaF40PbFsquxiXSg6eKm+vO26ig+8lOoQmef7UXW5LLCfNIFGj8sjWK7PHXstyNbo4MaOq5krrRlqUX/NCfzmuP42dldgd6zB1Q5+6iU+L8iJZUsaHtlyZrTHffD+KyU191/SLp/we+25J2S3ZYFRdp09vzPaYFQcQgMApEmAE76TC+T0a2+5p8DCVa1SYD/XOjgBFKplRr/PJXM7I08Ogp3Z0vt0b6MEbydFck/O+ctVig5yXnfi4zkFp+VlfneFccqd6uE50UHugh2mgudVKvWtry63u8wNfWuj+NpIzsJbU0SopU6pfcjk5arfVu36I9Jtr2OmqMBCXlC49ag9uNHKylxbjtwpQXF6rF5tg2orszhR3NLoYxD7LXAretDW4MT4s/yuztfPSkRwnqDMfvivxe0dBkSf8vri/1dx1w373+GHJCO/mbVi3T2/K9nLanIUABE6FAAHeqXj6IOzs6XUUJz1+SEdFM70z0YRcXZYFRO2BLoN6E12tGr3Utnuh8dVEkvmi7xVr9V6HQUJ8paeLICqaa5iPVmfvNJy7ml6XyInrb/igd60wBi3R58mm2ho8+HpIsffeG384KsZPiQ9jsc4bvYqDwPhs9qD9Sm+qIrxsydS7N7oMGE90Xjm/mipeOAwDbff1Rdjv5mXBeFRp4zY8t08/1/YCDE5AAAInRoAA78Qcvm9zg9EJM4j33ktUmd3JhFZyXqpqHC6ud3u/ZBQmEbnyURCUGR2qgpWerv0HpWIgxSNfk6vUqFkYKDqjC+0wvAvM7V1Eo2STu5IRr5WJGC8p7SYroXedCgZ71/Iflo3e2VphELlqzNsZXIaBdYaxlfnE6+Jet3NXr3tthf1nrtvicKu0DRs20KefZfsTaLgMAQgcPwECvOP38UFZGI4MmVguCeUWHx5DHc9eVE7ztV+chWXm75UKDTdmWx0dio21NQiGFucavg03eARTmxrpJh0JFitu50z7hUJKj8oMkC5pzWxAKG6ukHrRUOvkvKt+2Q6XJTI3e6mn62BoMmFcV/7s3VBz93UQaLdfvQmne7f1AyGnVJ3+9HSfXt/2nDq8hQAETpAAAd4JOn1/Js90Fw7V6U1qTq8s6Cvo2HlZuYarUHaNE7V0KJPbuwjXr5l1heOx3g6l0U2dEa0yYc89F65Lqxp5K0hfWH8UrgSjWl40BT0576jV7ZfuZC6puflTacZVizALrYa2ua+jcVQ7RbxsmrYgY/0TtfpTnT69lu3r601NCEDgeAgQ4B2PLw/bkiD1yHkwFeuMbjJTnaspXn90ajW565ZONhBMhmbE6PIZtq2rQ/1682EnSWvSCf1RVbs9eJA3Hck1a+fmE513WkHKmvTqyaq6mz2fYrxko02mzWCK1EzP2rNtvQoWAZZPO9tS+3ld1qfXsH0/RtAqBCBwYAQI8A7MIcekTj6YeJSr0dTskn1qRf4yCmd68Zzqy0Sve82ODlVt0FhX7hbqmV3Kvu+H/7yyHbHZRs0u5usHPw705pOhOk/knctK2NC71EabOhsuZmaoOJqetRrYKdHJXe1hQFt1y69P9OkVbd+ysoiHAAQaQoAAryGOaqKamWDC9/XwcK1BknMjNineQFG2oj8utZuDzOaP3TS5wVY8BZtfS3e/ljTTLtkRW1LMnAoDPS+ejn67td3MFQrIzBpHAemTGy6iqefJeTJaaRIjnwfrA6SNbUKp1nXTfbq+7dU6cQUCEDgtAgR4p+Xvg7TWjqxoWZ4y771M4o78qMymDLJfyEt12FRj25Kz+KBgu0rlTuBiw5kdscXLuTPJdOF8R5sVsgqkU9PcZy+l3i3GV5rI1dSOVKZew1QyE217EG/zfbqe7SkMHEIAAidOgADvxDvAQZhvF5svWQAfTLkF8V28qKqG6uaRVvUS/9pdlqrcpVtfVg3FtlIk2DUaZHp5Vbkbuarh7G7a8JFZpann4p26VZK2ez5JTTMMEjEXW7NJpsPds/nrNpDf+jTtFvr007bnreU9BCBwygQI8E7Z+4die7zGqCJJ72KsMAfxSGU5iCvNsLnIKgukLsQ6lCdTDkeFUuUP7dAyqkoWvVTfcErzLLe4sTQIikYJnTerB5FLVah90aamqagQ5L4zA73lPwTiQH7b07Rxf9pkn37C9goknIYABE6TAAHeafp9J1avsp6tdx2t75qcqzueJcmMze7bzlBzx9W0VkLdyLTFLHoyRfkCmngTiQAAFnVJREFU9jLd7DonszkknfvNPCz+bfCkjSpsdu1bRSLdqmpLzpfpV1p8sdBs3FfXMvKuV0ywbOqbKc2SvzJfvB1q/kQQaVOE1LWhrFwgo2o0NX5qR17nhewoZv5K8f3yadpN2LBun17P9qKFnIEABE6cwCk+gBebt0cg/aB0mYfBy/WntZvz/OnI9R3H1Iv+OY7vjqZ+/Lz7lKxiW6l6tn6q/UJ5Z1Qi1wseEO/E9UOZjtHDLSlvH1SfLu/Wtzhljr9Mv8K1uD3HdxzXH029EltC6dV1s7zSanvTke86jp/l4PhOGYPYiKnvxnpZ2eX+L+gU+8LzR2n/y/FHZc73RoFuTnyxpO20Qb7veyMn6VeRnkl9a0SJnFQfsqXMa7UN6VKr9Ol1bU+3xzEEIACBkEDLvJx4jIv5EIAABCAAAQhA4KgIMEV7VO7EmMMkYDZotLIpOzLv620EOUzb0AoCEIAABA6RACN4h+gVdIIABCAAAQhAAALPIMAI3jPgURUCEIAABCAAAQgcIgECvEP0CjpBAAIQgAAEIACBZxD4yjPqrlW11WqtVY9KEIAABCAAgVMjwD7IU/P45uzdeYBnVKfDbs6BSDpeAubHEPfK8foXyyDwFAEGRJ4ixPVlBJiiXUaHaxCAAAQgAAEIQKCBBAjwGug0VIYABCAAAQhAAALLCBDgLaPDNQhAAAIQgAAEINBAAgR4DXQaKkMAAhCAAAQgAIFlBAjwltHZxbVZP3nCQXesxS7apA0IrEqAfroqsQMun36yCk9ROWBHoRoEnkWAAK8U30Ljrnm0VF+z0usbPNm7lu+N5DwhcrGYqd/tJsGgedRVt6tuf7x9HZ/QjcsnQGBpP93d/TLr5x75lvtRtPz67vTcZY9YbnOZJj1d+55GT33olFXlHAQg0BgCBHiH4Kr2C50t0WMx7qrTOdfj2aU83w9SZwRB4Xyu+eRWHxj2W0KPSxsj8EQ/3Vg7SwT1rn15NjJxp/IfBmqnyj91PVX0aA7Xs7mtF8s+dI6GDoZA4HQJEOCV+r6twYMJpK7VK72+w5OzvjrDueRO9XDdS77M2gM9TN0dKrJeU8HoQm6UZT1J1DpcAvu5X5yXnaVIitefp2cT+nLR5qWIuAgBCBwxAQK8g3buQuOriSRHo4uSULP3Wocd4i304fGgAaMcBGoSoC/XBEUxCEDgQAjs5UkWB2L74asxeyczeCfnjV6l56Fizc1ampLAL76+54PFvW4D/fesB81D4LkE6MvPJUh9CEBgxwSaMYK3WGg27qsbbHyIFll3cxsgFmN1zcaD4F94bTHrJ+fMNOGaZSS7ONvKb6nVt9sv8tdSu9Lq6L3E4Qs7/HX2IpmaXVI+vFTGqqv+LLdQL80iM4VascMuXT7afLIwPrHMu32NU03M+l21OkOZ+E7zoTq2XKul/vgpX/XVT/va1K3D+0k2R1yg4J+oH8TcS/pAgKNmf6lCV2i3WDC4DzP+7Kob9Ln8vbNFPz+hZ1HHlrrd8F5e2pftx4BqcizRI/s5tY2+X6ZbX3eMrhc7K2cgcEwE/B3/hY+ird+oN3J8U0fu1PeCap4/dRWfy0ry/JFjrrm+67q+O/V8bzryHVPfGcX1VykzTTVg23VGoSbJpaRdW341vae+m9ExlFzdXtJy/sjWMbaHfwmvgt5eno2VZu1x/KypyXnHcfyRbcPKketb+0NJ5XZZvZ7yg7WloLdv9ci3Z/U/jtdV7xXft7zD/h/7zptG94V8N+ug+F6q1V9i+fZespyr/WF9GMv3Ih1TfcWWqetne28Vy0c9K/rMKF4v17Moz/OnkYyEl2Wbtz1s09oQ2+kvue9S/bfqc8rKW98G6xu/xMe+703d8DNU+Xs8qcfR/gms/hmwf53R4HAINGMET66m8QaDtnoXUVqRxw8VeeMm0utrXffaavcGuixdqFanTDaU770OBc3fe9kL8vR+Ljmji9ymjFX1zold9e2sr/OJ0cMLbA+rt9W7ngZr9ebDt5lRNq29K3Kus8sHDXrRvHHbMn5cY0dvtR9W570qsGMr39FLk/pi/qiXF9ca2Gn9dk+Dm/CemVylci2u2l9WxRXJNxuEzL0Y/LV7urC7YCN56/p5Puxk0wZFo5XBpqQVdPXMzStHb+J1EG31Bjf104iszXEHfb/MB5LavYv69q3AkqIQgMDhEDj4AK89eCjuZn0yMHH1OrU0zaQRyKdTkOqUyTnKfihO7rK552Z3msjVZfyNKq2nd669Fd/O7syGDOnshf1mtwJ6CmPTuW7vU/Oo9vLKr1l2SfW5CrFvcrHiKCsr46sVeFcIP9HTZyp0AXvPzN/L/jzZdn+x8t30zWiCi/w9vaafzQ8Z36YNSr3GaVRW8v5cw7d9JSsZwh2316nPkSpx1s7V77vt932rW94HEmlSqvzJeQgcC4GDD/AOC3Rbr96YIZKJruIFZ+FO1+Lo3eY0L44Ylsm2u/wclWWP6ARDO2X1NnNuO/L3w3szRA5NSjS6JzvKuu3+slx+ls5+/dy79jRyHWk+0XnHJBDva5xEellVC++W27n+fbEJJst1K5jCCQhA4KgINCPAW8w0DjZZdKNF/ecKx6p274v2qzfBUyfmt/fh9HCw0zU7ehdr9Uy94y+HyqnouKWjPWgPLsPp5Tq8j5bC8Ru2Xz+3Nbh+kO9N40BveN5RK7P5aPc+2C+T3dtLixCAwGYJHHyAZ57i0Oqc61avdXPzoIdgKiZcU7ZZFDWl2fVm81uZ2U4zBVI2ercJvW0wqdS0WlZLs+M1tWs3uFg+TRquMyqbvs1KPLx30fRyirfc17m1joen9eFpFK4TlfLTt4fSXw7Az2atog30grWMQ72Ld8k+5dFtcDwAJk+ZzXUIQOBgCRx2gLcY6619isOgp3Z+admesIaLwue6fdfX1aRk9G5TettgMjMlnBi9GF+lRjLtlI40uct/K9mpmuyan1hSIYC0wUBc4nkHBfmribO8h2+7uppUJH1eTeSRl7bTsCkzg3WiUhIcP6O/pMRWH1r59dd97sfPJT+S2r1oKUaJdYW+bO1c474rEZ8/9TwmVrcyH9jPhHyLvIcABI6GwK439K627TuVUiHO+jH1XcfxnSgdSjbrgy2/bOv/JspYGWH6liJDe931bSYR36SHeFLvsrQfVpZJcWEhmDQHUYqTTJoDmwYiXdakawhTzRRTLiQpFOJrJqWG60Z88xytLvnziZwkrURIxaZ7sLqb9AxukL+jWlaRZ2KXSZdzKn+r3SuGSpZT3Fvi1CR5vyXlrX+MjOr+Yn2W76f2fF5+6ny+78Zpi9LeTPRZ5meb1qSqTPX1lD4xnOicM8rcq2EKn6w91X050Xs1jln5aRLJcSK7yt7A86l0Ukldc1Ric+YeL6bOydbn3T4JrP4ZsE9tafvQCJhdaDv9W7nDmkAmCOZMfjvHd4J8eKkPvTjAsR9kUY48lX1wrVOm/EM4/BIpvxYArat3nEPO6l0mM/zSDfL5mXx50T+Ti85183m5imUdx01y1hW8bQLPlMwo36D9MjNthTFVnl2iZ7qsKR8HiyGIlHwnF9wl7T4Vtz3Ju2BX80+sfK/EAZ7pF1H+SNtX3FQAk0FTs79U9tPqfhE0EwQTaV3sPZxRIn7zlJ/zfS3JbxmKqL5epWdkf+oeCPqwk/pxFmuXvldsX7YXa3KMA67N9f1qmyPdvFHqHpTvRH0hXS97z1qbeN03gdU/A/atMe0fEoGWUWaXw5HmSRM7bnKX5tHWlgiYNY2d95fy6+St2JIOuxa7+r1ingzR0XDuaupfN3Kd4in6+al+BZOnCB3v9dU/A46XBZatToBn0a7OjBo7JzDTu+Fc7rRGUrKd60aDmyOAn4ssYVJkwhkIQKAOgcPeZFHHAsocJYFZv6VulGsw2EzijHRBfHd0vsbPRZfCpMiEMxCAwOoEGMFbnRk1dkRgfvsueGLI1VAaeQMdyCbqHVm/TjN293O4i9Y+HWwdSbusg5+LtGFSZMIZCEBgNQKM4K3Gi9K7JGCeLDB81Nn0IXmu6i7bb1Jbi7G6LZsAfK5hp6V+PlvOodqDn4uegUmRCWcgAIGVCOxlk8VKGlIYAhCAAAQgcKIE2JR4oo7fgNl7maKlw27Ac4g4egLsoDt6F2MgBJYSMJ8B/EFgXQJM0a5LjnoQgAAEIAABCEDgQAkQ4B2oY1ALAhCAAAQgAAEIrEuAAG9dctSDAAQgAAEIQAACB0qAAO9AHYNaEIAABCAAAQhAYF0CBHjrkqMeBCAAAQhAAAIQOFACjQzwTKZ3s7uoOs/XTP1WWMaUM//sUxFCPxSvV8s6UM+hFgQqCCxmfXW7qf7f7ao/W1SUlppevtIwLkAAAhA4YQLNC/AWY11NQo9N7qoyufZ07U/lRo51p74eBunnIJjrnkaOKeBo5Pk6oWfYn3B3P37TzY+fzvmjzi49mXREvu9p+kaanHdyP3JCFk0vf/wexUIIQAACaxLwd/wnme+d9f+8kePLdX1X8uWMfK9SlOePHPmS448qCk1dc931p5UyuACB/RFY9V4J7g3JdwodvvxeaHr5/XmGliGwGwKrfgbsRitaaQqBho3gLXR/O5f7+kKvzfDc/Fb31TNPa4a8VINAEwmE94YZkX7zKj1abWxp69UbM1w91218wzS9fBN9hM4QgAAEdkegWQHe4l63c1eve211Xua/sHYHjZYgcHgEPL2fG63O9CIf35kQ78VZoPL8vRep3vTyh+cBNIIABCBwSAQaFeDN3g01d1+rZ76wXr1REOLd3otBvEPqUuiyHwIdBb959KgPy26Ixw/R/dL08vuhTKsQgAAEmkKgQQHeTHcTyX1twrsgwlM468Q0bVM6G3puk0Bb4SDdXPEg3dLmml5+qXFchAAEIHDyBJoT4M3uNJGZnrU+S9YV1ftCs/V4hcBxEuhdjIJR7cl5V+N4FG+h2biv7nm09fzshewMbtPLH6cXsQoCEIDAZgg0JsCbhcN3wfSsNd2uK6pOl2JL8gqBEyDQHujBG8l15hp2ojx43be6e3GhmzAnkJyXnQRE08snlnAEAQhAAAI5Al/JvT/Qt+H0rHSuVjQQkVF0cqfZdS8T/GWu8wYCp0KgPdD1w0DXOXtnd8EODJ3ld2A0vXzOTt5CAAIQgEBIoBEjeIvxVTA9Ow0St5rkrcm/aZDNeKLKnMd4GgInT2ChD48GQnqJwzIoTS+/zDauQQACEDgNAg0I8KJ8XdHu2bxbwnQpUnGa9qlF5PZLLC+R9xA4MgKzdxrOJWd0UW+Uu+nlj8x9mAMBCEBgHQKHH+AFue9Su2dzVtp0KTLTtLlrNvh7LMsbEclVReCYE8VbCDSTwGKmvtlg4Yx0k3lcX4U5TS9fYRanIQABCJwagQMP8BYKct/V8kpxmrY9uAmeNzsfdrIPW1/MNH471FyupjyEthZdCjWNwEKLWV/dzrke3ZG8h0G8e7bckqaXL7eKsxCAAAROlsCun6lW/9l60/B5s+aZs/afm31qrH2WZny94jmcU9fxHSsjeHV8x50ueY7trqnQHgSKBOrfK9m64TOWHd9xXH/qVTyIOVWl6eVTpnAIgaMisO5nwFFBwJi1CbRMzV1Gt61WK9gkscs2aQsCTSTAvdJEr6EzBDZHgM+AzbE8RUkHPkV7ii7BZghAAAIQgAAEIPA8AgR4z+NHbQhAAAIQgAAEIHBwBAjwDs4lKAQBCEAAAhCAAASeR4AA73n8qA0BCEAAAhCAAAQOjsBeHlVmFo7yBwEIPE2Ae+VpRpSAAAQgAIEigb0EeDveuFu0mjMQaAABdtA1wEmoCIEtEuAH3hbhnoBopmhPwMmYCAEIQAACEIDAaREgwDstf2MtBCAAAQhAAAInQIAA7wScjIkQgAAEIAABCJwWAQK80/I31kIAAhCAAAQgcAIECPBOwMmYCAEIQAACEIDAaRE48ABvoXG3JbOTKP7Xn8UemvVT59NlzHG3q/54pkVcmgMInAaBxayvbvq+MffCrPpOaHr50/AqVkIAAhBYjcCBB3htDR58Td3QKGfkyb/uxRb2rn15Iyd4H1zzfZkULL431UhzTYbn6nTHBHkxMQ6OnYD50dM5f9TZpRfeC76n6Rtpct5Rd1wM8ppe/tj9iX0QgAAE1ibg7/hPMt87q/1NXfmmnjst1vNGTnDNGXm5i1PfVXW9XGHeQuDgCKx6r1TfC54/csy94Pjp26Tp5Q/OYSgEgQ0TWPUzYMPNI67hBA58BG/tuFVST6+jkb/HD8WRi+dIpi4EDo/AQve3c0mO3rxq59Rr69UbM9I91+29vReaXj5nIm8hAAEIQCBD4IgDPKnzMpy+nb/3MkbzBgLHR8DTexPf6Uwv8vGdpPaLs8Dk5F5oevnj8yAWQQACENgkgaMO8LzwG0/Oy84mmSELAgdIoKPw98yjlg5YP36I1qQ2vfwBugCVIAABCBwQgSMO8Ga6mxjSZVNWB+QBVIHARgi0FQ7SzVVvwLrp5TcCDSEQgAAEjpbAcQZ4i5n63XOZ+M4Z3WhQMmV1tB7FsJMl0LsYySxKmJx3lWyYXWg27qt7Hvzakc5eyN4OTS9/so7GcAhAAAI1CBxNgDcfdpJceZ1zPcrVaOrpgeiuRjegyFEQaA/04I3kOnMNO1GOyO5b3b240I1NJ5RertD08kfhNIyAAAQgsB0CX9mO2N1LNXnwCOZ2z50WD4xAe6Drh4Guc2rN7oIdGDrL78BoevmcnbyFAAQgAIGQwNGM4OFQCECgisBCHx7NNVevkzzhVYUlNb38EtO4BAEIQOBECBDgnYijMfOECczeaTg361EvVCu+a3r5E3Y1pkMAAhCwBAjwLAleIXCMBMyGI7PBwhnpps561KaXP0YfYhMEIACBNQgcTYCXJHBdgwJVIHB0BBZazPrqmg1H7kjewyDePVtuatPLl1vFWQhAAAKnSqDRmyzMg9Jt9gdNztWauJr61/WmoU7V49h99ATC+8KR45zp0vPUa9vEKOWmN718uVWchQAEIHDaBFrmWbq7RNBqtbRqkzaQc6e+rmstItqlRbQFge0QWOde2Y4mSIUABPZBgM+AfVA/njYbMEW76o6+43EOlkAAAhCAAAQgAIF1CBx4gLfQrP822AHoTpl6XcfB1IEABCAAAQhA4PQIHPQavMX4ra4ezzT1HtRbvozo9DyHxRCAAAQgAAEIQKCCQCPW4FXozmkIHDUB1t8ctXsxDgJPEuAz4ElEFFhC4MCnaJdoziUIQAACEIAABCAAgVICe5miNb9K+IMABJ4mwL3yNCNKQAACEIBAkcDOA7xVU6QUVeYMBCAAAQhAAAIQgMAyAkzRLqPDNQhAAAIQgAAEINBAAgR4DXQaKkMAAhCAAAQgAIFlBAjwltHhGgQgAAEIQAACEGggAQK8BjoNlSEAAQhAAAIQgMAyAgR4y+hwDQIQgAAEIAABCDSQAAFeA52GyhCAAAQgAAEIQGAZAQK8ZXS4BgEIQAACEIAABBpIgACvgU5DZQhAAAIQgAAEILCMAAHeMjpcgwAEIAABCEAAAg0kQIDXQKehMgQgAAEIQAACEFhGgABvGR2uQQACEIAABCAAgQYSIMBroNNQGQIQgAAEIAABCCwjQIC3jA7XIAABCEAAAhCAQAMJEOA10GmoDAEIQAACEIAABJYR+P8BuyQZxUImyc8AAAAASUVORK5CYII=;" vertex="1" parent="1">
          <mxGeometry x="510" y="699" width="422" height="257" as="geometry"/>
        </mxCell>
      </root>
    </mxGraphModel>
  </diagram>
</mxfile>
